<svg xmlns="http://www.w3.org/2000/svg" xmlns:xlink="http://www.w3.org/1999/xlink" contentStyleType="text/css" height="757px" preserveAspectRatio="none" style="width:321px;height:757px;background:#FFFFFF;" version="1.1" viewBox="0 0 321 757" width="321px" zoomAndPan="magnify"><defs/><g><path d="M19.5,7 L295.2334,7 A12.5,12.5 0 0 1 307.7334,19.5 L307.7334,33.2969 L7,33.2969 L7,19.5 A12.5,12.5 0 0 1 19.5,7 " fill="#F1F1F1" style="stroke:#F1F1F1;stroke-width:1.0;"/><rect fill="none" height="744.2969" rx="12.5" ry="12.5" style="stroke:#181818;stroke-width:0.5;" width="300.7334" x="7" y="7"/><line style="stroke:#181818;stroke-width:0.5;" x1="7" x2="307.7334" y1="33.2969" y2="33.2969"/><text fill="#000000" font-family="sans-serif" font-size="14" lengthAdjust="spacing" textLength="49.1436" x="132.7949" y="24.9951">Cliente</text><ellipse cx="82.5" cy="54.2969" fill="#222222" rx="10" ry="10" style="stroke:#222222;stroke-width:1.0;"/><g id="Cliente.PagarTarifa"><rect fill="#F1F1F1" height="50" rx="12.5" ry="12.5" style="stroke:#181818;stroke-width:0.5;" width="100.5273" x="32" y="117.2969"/><line style="stroke:#181818;stroke-width:0.5;" x1="32" x2="132.5273" y1="143.5938" y2="143.5938"/><text fill="#000000" font-family="sans-serif" font-size="14" lengthAdjust="spacing" textLength="80.5273" x="42" y="135.292">PagarTarifa</text></g><g id="Cliente.EsperarParada"><rect fill="#F1F1F1" height="50" rx="12.5" ry="12.5" style="stroke:#181818;stroke-width:0.5;" width="122.5527" x="21" y="220.2969"/><line style="stroke:#181818;stroke-width:0.5;" x1="21" x2="143.5527" y1="246.5938" y2="246.5938"/><text fill="#000000" font-family="sans-serif" font-size="14" lengthAdjust="spacing" textLength="102.5527" x="31" y="238.292">EsperarParada</text></g><g id="Cliente.ComenzarViaje"><rect fill="#F1F1F1" height="50" rx="12.5" ry="12.5" style="stroke:#181818;stroke-width:0.5;" width="125.6973" x="19.5" y="323.2969"/><line style="stroke:#181818;stroke-width:0.5;" x1="19.5" x2="145.1973" y1="349.5938" y2="349.5938"/><text fill="#000000" font-family="sans-serif" font-size="14" lengthAdjust="spacing" textLength="105.6973" x="29.5" y="341.292">ComenzarViaje</text></g><g id="Cliente.SeguirRuta"><rect fill="#F1F1F1" height="50" rx="12.5" ry="12.5" style="stroke:#181818;stroke-width:0.5;" width="97.5742" x="33.5" y="426.2969"/><line style="stroke:#181818;stroke-width:0.5;" x1="33.5" x2="131.0742" y1="452.5938" y2="452.5938"/><text fill="#000000" font-family="sans-serif" font-size="14" lengthAdjust="spacing" textLength="77.5742" x="43.5" y="444.292">SeguirRuta</text></g><g id="Cliente.EsperarDestino"><rect fill="#F1F1F1" height="50" rx="12.5" ry="12.5" style="stroke:#181818;stroke-width:0.5;" width="127.2354" x="19" y="529.2969"/><line style="stroke:#181818;stroke-width:0.5;" x1="19" x2="146.2354" y1="555.5938" y2="555.5938"/><text fill="#000000" font-family="sans-serif" font-size="14" lengthAdjust="spacing" textLength="107.2354" x="29" y="547.292">EsperarDestino</text></g><g id="Cliente.TerminarViaje"><rect fill="#F1F1F1" height="50" rx="12.5" ry="12.5" style="stroke:#181818;stroke-width:0.5;" width="118.2051" x="23.5" y="632.2969"/><line style="stroke:#181818;stroke-width:0.5;" x1="23.5" x2="141.7051" y1="658.5938" y2="658.5938"/><text fill="#000000" font-family="sans-serif" font-size="14" lengthAdjust="spacing" textLength="98.2051" x="33.5" y="650.292">TerminarViaje</text></g><ellipse cx="82.5" cy="730.2969" fill="none" rx="11" ry="11" style="stroke:#222222;stroke-width:1.0;"/><ellipse cx="82.5" cy="730.2969" fill="#222222" rx="6" ry="6" style="stroke:#222222;stroke-width:1.0;"/><!--link *start*Cliente to PagarTarifa--><g id="link_*start*Cliente_PagarTarifa"><path d="M82.5,64.4969 C82.5,76.9769 82.5,93.7169 82.5,111.2269 " fill="none" id="*start*Cliente-to-PagarTarifa" style="stroke:#181818;stroke-width:1.0;"/><polygon fill="#181818" points="82.5,117.2269,86.5,108.2269,82.5,112.2269,78.5,108.2269,82.5,117.2269" style="stroke:#181818;stroke-width:1.0;"/><text fill="#000000" font-family="sans-serif" font-size="13" lengthAdjust="spacing" textLength="131.1934" x="83.5" y="95.3638">"Paga Tarifa/Abono"</text></g><!--link PagarTarifa to EsperarParada--><g id="link_PagarTarifa_EsperarParada"><path d="M82.5,167.4869 C82.5,183.3669 82.5,198.0469 82.5,213.9569 " fill="none" id="PagarTarifa-to-EsperarParada" style="stroke:#181818;stroke-width:1.0;"/><polygon fill="#181818" points="82.5,219.9569,86.5,210.9569,82.5,214.9569,78.5,210.9569,82.5,219.9569" style="stroke:#181818;stroke-width:1.0;"/><text fill="#000000" font-family="sans-serif" font-size="13" lengthAdjust="spacing" textLength="214.2334" x="83.5" y="198.3638">"Espera en parada m&#225;s cercana"</text></g><!--link EsperarParada to ComenzarViaje--><g id="link_EsperarParada_ComenzarViaje"><path d="M82.5,270.4869 C82.5,286.3669 82.5,301.0469 82.5,316.9569 " fill="none" id="EsperarParada-to-ComenzarViaje" style="stroke:#181818;stroke-width:1.0;"/><polygon fill="#181818" points="82.5,322.9569,86.5,313.9569,82.5,317.9569,78.5,313.9569,82.5,322.9569" style="stroke:#181818;stroke-width:1.0;"/><text fill="#000000" font-family="sans-serif" font-size="13" lengthAdjust="spacing" textLength="111.3062" x="83.5" y="301.3638">"Comienza viaje"</text></g><!--link ComenzarViaje to SeguirRuta--><g id="link_ComenzarViaje_SeguirRuta"><path d="M82.5,373.4869 C82.5,389.3669 82.5,404.0469 82.5,419.9569 " fill="none" id="ComenzarViaje-to-SeguirRuta" style="stroke:#181818;stroke-width:1.0;"/><polygon fill="#181818" points="82.5,425.9569,86.5,416.9569,82.5,420.9569,78.5,416.9569,82.5,425.9569" style="stroke:#181818;stroke-width:1.0;"/><text fill="#000000" font-family="sans-serif" font-size="13" lengthAdjust="spacing" textLength="79.0918" x="83.5" y="404.3638">"Sigue ruta"</text></g><!--link SeguirRuta to EsperarDestino--><g id="link_SeguirRuta_EsperarDestino"><path d="M82.5,476.4869 C82.5,492.3669 82.5,507.0469 82.5,522.9569 " fill="none" id="SeguirRuta-to-EsperarDestino" style="stroke:#181818;stroke-width:1.0;"/><polygon fill="#181818" points="82.5,528.9569,86.5,519.9569,82.5,523.9569,78.5,519.9569,82.5,528.9569" style="stroke:#181818;stroke-width:1.0;"/><text fill="#000000" font-family="sans-serif" font-size="13" lengthAdjust="spacing" textLength="184.1709" x="83.5" y="507.3638">"Esperar parada de destino"</text></g><!--link EsperarDestino to TerminarViaje--><g id="link_EsperarDestino_TerminarViaje"><path d="M82.5,579.4869 C82.5,595.3669 82.5,610.0469 82.5,625.9569 " fill="none" id="EsperarDestino-to-TerminarViaje" style="stroke:#181818;stroke-width:1.0;"/><polygon fill="#181818" points="82.5,631.9569,86.5,622.9569,82.5,626.9569,78.5,622.9569,82.5,631.9569" style="stroke:#181818;stroke-width:1.0;"/><text fill="#000000" font-family="sans-serif" font-size="13" lengthAdjust="spacing" textLength="142.7588" x="83.5" y="610.3638">"Se baja del veh&#237;culo"</text></g><!--link TerminarViaje to *end*Cliente--><g id="link_TerminarViaje_*end*Cliente"><path d="M82.5,682.3369 C82.5,694.8869 82.5,703.5769 82.5,713.1469 " fill="none" id="TerminarViaje-to-*end*Cliente" style="stroke:#181818;stroke-width:1.0;"/><polygon fill="#181818" points="82.5,719.1469,86.5,710.1469,82.5,714.1469,78.5,710.1469,82.5,719.1469" style="stroke:#181818;stroke-width:1.0;"/></g><!--SRC=[LP112i8m44NtdkBJfI3kNGYYxiKMD-9Yh6EDjAbCKXUAX_40diABcMaKsv15vkU_dq-S9yz8vgLXwpa1ENpFk0yGrdQumsWqnOeAaep470aJ93eYZkFPlhPrqhgxBgMMxi92iYAXGyj50MnnYLhrVZhaB3bPYXbzHbFcTSNsHh8nT6PD2O9H1LTL8jOtAPPoqHXPDxvzEJL5mv0mHN_djjDqmSuRM_-hog_eWSDkBtirVu1cP2oLiPsUAMDFPsLBNFdqVkLD-SNxNgN3JmyU7m00]--></g></svg>