<svg xmlns="http://www.w3.org/2000/svg" xmlns:xlink="http://www.w3.org/1999/xlink" contentStyleType="text/css" height="1101px" preserveAspectRatio="none" style="width:526px;height:1101px;background:#FFFFFF;" version="1.1" viewBox="0 0 526 1101" width="526px" zoomAndPan="magnify"><defs/><g><!--class Ciudad--><g id="elem_Ciudad"><rect codeLine="1" fill="#F1F1F1" height="64.2969" id="Ciudad" rx="2.5" ry="2.5" style="stroke:#181818;stroke-width:0.5;" width="80.8906" x="216" y="15.5"/><ellipse cx="231" cy="31.5" fill="#ADD1B2" rx="11" ry="11" style="stroke:#181818;stroke-width:1.0;"/><path d="M233.9688,37.1406 Q233.3906,37.4375 232.75,37.5781 Q232.1094,37.7344 231.4063,37.7344 Q228.9063,37.7344 227.5781,36.0938 Q226.2656,34.4375 226.2656,31.3125 Q226.2656,28.1875 227.5781,26.5313 Q228.9063,24.875 231.4063,24.875 Q232.1094,24.875 232.75,25.0313 Q233.4063,25.1875 233.9688,25.4844 L233.9688,28.2031 Q233.3438,27.625 232.75,27.3594 Q232.1563,27.0781 231.5313,27.0781 Q230.1875,27.0781 229.5,28.1563 Q228.8125,29.2188 228.8125,31.3125 Q228.8125,33.4063 229.5,34.4844 Q230.1875,35.5469 231.5313,35.5469 Q232.1563,35.5469 232.75,35.2813 Q233.3438,35 233.9688,34.4219 L233.9688,37.1406 Z " fill="#000000"/><text fill="#000000" font-family="sans-serif" font-size="14" lengthAdjust="spacing" textLength="48.8906" x="245" y="36.3467">Ciudad</text><line style="stroke:#181818;stroke-width:0.5;" x1="217" x2="295.8906" y1="47.5" y2="47.5"/><ellipse cx="227" cy="61.1484" fill="none" rx="3" ry="3" style="stroke:#038048;stroke-width:1.0;"/><text fill="#000000" font-family="sans-serif" font-size="14" lengthAdjust="spacing" textLength="39.9629" x="236" y="64.4951">calles</text><line style="stroke:#181818;stroke-width:0.5;" x1="217" x2="295.8906" y1="71.7969" y2="71.7969"/></g><!--class Compa??a--><g id="elem_Compa&#241;&#237;a"><rect codeLine="5" fill="#F1F1F1" height="64.2969" id="Compa&#241;&#237;a" rx="2.5" ry="2.5" style="stroke:#181818;stroke-width:0.5;" width="120.6094" x="196" y="173.5"/><ellipse cx="219.0205" cy="189.5" fill="#ADD1B2" rx="11" ry="11" style="stroke:#181818;stroke-width:1.0;"/><path d="M221.9892,195.1406 Q221.4111,195.4375 220.7705,195.5781 Q220.1298,195.7344 219.4267,195.7344 Q216.9267,195.7344 215.5986,194.0938 Q214.2861,192.4375 214.2861,189.3125 Q214.2861,186.1875 215.5986,184.5313 Q216.9267,182.875 219.4267,182.875 Q220.1298,182.875 220.7705,183.0313 Q221.4267,183.1875 221.9892,183.4844 L221.9892,186.2031 Q221.3642,185.625 220.7705,185.3594 Q220.1767,185.0781 219.5517,185.0781 Q218.208,185.0781 217.5205,186.1563 Q216.833,187.2188 216.833,189.3125 Q216.833,191.4063 217.5205,192.4844 Q218.208,193.5469 219.5517,193.5469 Q220.1767,193.5469 220.7705,193.2813 Q221.3642,193 221.9892,192.4219 L221.9892,195.1406 Z " fill="#000000"/><text fill="#000000" font-family="sans-serif" font-size="14" lengthAdjust="spacing" textLength="70.7861" x="234.8028" y="194.3467">Compa&#241;&#237;a</text><line style="stroke:#181818;stroke-width:0.5;" x1="197" x2="315.6094" y1="205.5" y2="205.5"/><ellipse cx="207" cy="219.1484" fill="none" rx="3" ry="3" style="stroke:#038048;stroke-width:1.0;"/><text fill="#000000" font-family="sans-serif" font-size="14" lengthAdjust="spacing" textLength="94.6094" x="216" y="222.4951">TarifaRegular</text><line style="stroke:#181818;stroke-width:0.5;" x1="197" x2="315.6094" y1="229.7969" y2="229.7969"/></g><!--class Servicio--><g id="elem_Servicio"><rect codeLine="9" fill="#F1F1F1" height="48" id="Servicio" rx="2.5" ry="2.5" style="stroke:#181818;stroke-width:0.5;" width="87.583" x="305.5" y="307"/><ellipse cx="320.5" cy="323" fill="#A9DCDF" rx="11" ry="11" style="stroke:#181818;stroke-width:1.0;"/><path d="M320.6094,318.3438 L319.4531,323.4219 L321.7813,323.4219 L320.6094,318.3438 Z M319.125,316.1094 L322.1094,316.1094 L325.4688,328.5 L323.0156,328.5 L322.25,325.4375 L318.9688,325.4375 L318.2188,328.5 L315.7813,328.5 L319.125,316.1094 Z " fill="#000000"/><text fill="#000000" font-family="sans-serif" font-size="14" font-style="italic" lengthAdjust="spacing" textLength="55.583" x="334.5" y="327.8467">Servicio</text><line style="stroke:#181818;stroke-width:0.5;" x1="306.5" x2="392.083" y1="339" y2="339"/><line style="stroke:#181818;stroke-width:0.5;" x1="306.5" x2="392.083" y1="347" y2="347"/></g><!--class Flota--><g id="elem_Flota"><rect codeLine="11" fill="#F1F1F1" height="64.2969" id="Flota" rx="2.5" ry="2.5" style="stroke:#181818;stroke-width:0.5;" width="66.5762" x="374" y="432.5"/><ellipse cx="389" cy="448.5" fill="#ADD1B2" rx="11" ry="11" style="stroke:#181818;stroke-width:1.0;"/><path d="M391.9688,454.1406 Q391.3906,454.4375 390.75,454.5781 Q390.1094,454.7344 389.4063,454.7344 Q386.9063,454.7344 385.5781,453.0938 Q384.2656,451.4375 384.2656,448.3125 Q384.2656,445.1875 385.5781,443.5313 Q386.9063,441.875 389.4063,441.875 Q390.1094,441.875 390.75,442.0313 Q391.4063,442.1875 391.9688,442.4844 L391.9688,445.2031 Q391.3438,444.625 390.75,444.3594 Q390.1563,444.0781 389.5313,444.0781 Q388.1875,444.0781 387.5,445.1563 Q386.8125,446.2188 386.8125,448.3125 Q386.8125,450.4063 387.5,451.4844 Q388.1875,452.5469 389.5313,452.5469 Q390.1563,452.5469 390.75,452.2813 Q391.3438,452 391.9688,451.4219 L391.9688,454.1406 Z " fill="#000000"/><text fill="#000000" font-family="sans-serif" font-size="14" lengthAdjust="spacing" textLength="34.5762" x="403" y="453.3467">Flota</text><line style="stroke:#181818;stroke-width:0.5;" x1="375" x2="439.5762" y1="464.5" y2="464.5"/><ellipse cx="385" cy="478.1484" fill="none" rx="3" ry="3" style="stroke:#038048;stroke-width:1.0;"/><text fill="#000000" font-family="sans-serif" font-size="14" lengthAdjust="spacing" textLength="26.8311" x="394" y="481.4951">tipo</text><line style="stroke:#181818;stroke-width:0.5;" x1="375" x2="439.5762" y1="488.7969" y2="488.7969"/></g><!--class Veh?culo--><g id="elem_Veh&#237;culo"><rect codeLine="15" fill="#F1F1F1" height="64.2969" id="Veh&#237;culo" rx="2.5" ry="2.5" style="stroke:#181818;stroke-width:0.5;" width="91.9785" x="240.5" y="590"/><ellipse cx="255.5" cy="606" fill="#ADD1B2" rx="11" ry="11" style="stroke:#181818;stroke-width:1.0;"/><path d="M258.4688,611.6406 Q257.8906,611.9375 257.25,612.0781 Q256.6094,612.2344 255.9063,612.2344 Q253.4063,612.2344 252.0781,610.5938 Q250.7656,608.9375 250.7656,605.8125 Q250.7656,602.6875 252.0781,601.0313 Q253.4063,599.375 255.9063,599.375 Q256.6094,599.375 257.25,599.5313 Q257.9063,599.6875 258.4688,599.9844 L258.4688,602.7031 Q257.8438,602.125 257.25,601.8594 Q256.6563,601.5781 256.0313,601.5781 Q254.6875,601.5781 254,602.6563 Q253.3125,603.7188 253.3125,605.8125 Q253.3125,607.9063 254,608.9844 Q254.6875,610.0469 256.0313,610.0469 Q256.6563,610.0469 257.25,609.7813 Q257.8438,609.5 258.4688,608.9219 L258.4688,611.6406 Z " fill="#000000"/><text fill="#000000" font-family="sans-serif" font-size="14" lengthAdjust="spacing" textLength="59.9785" x="269.5" y="610.8467">Veh&#237;culo</text><line style="stroke:#181818;stroke-width:0.5;" x1="241.5" x2="331.4785" y1="622" y2="622"/><ellipse cx="251.5" cy="635.6484" fill="none" rx="3" ry="3" style="stroke:#038048;stroke-width:1.0;"/><text fill="#000000" font-family="sans-serif" font-size="14" lengthAdjust="spacing" textLength="29.8936" x="260.5" y="638.9951">Tipo</text><line style="stroke:#181818;stroke-width:0.5;" x1="241.5" x2="331.4785" y1="646.2969" y2="646.2969"/></g><!--class Conductor--><g id="elem_Conductor"><rect codeLine="19" fill="#F1F1F1" height="48" id="Conductor" rx="2.5" ry="2.5" style="stroke:#181818;stroke-width:0.5;" width="104.4814" x="234.5" y="440.5"/><ellipse cx="249.5" cy="456.5" fill="#ADD1B2" rx="11" ry="11" style="stroke:#181818;stroke-width:1.0;"/><path d="M252.4688,462.1406 Q251.8906,462.4375 251.25,462.5781 Q250.6094,462.7344 249.9063,462.7344 Q247.4063,462.7344 246.0781,461.0938 Q244.7656,459.4375 244.7656,456.3125 Q244.7656,453.1875 246.0781,451.5313 Q247.4063,449.875 249.9063,449.875 Q250.6094,449.875 251.25,450.0313 Q251.9063,450.1875 252.4688,450.4844 L252.4688,453.2031 Q251.8438,452.625 251.25,452.3594 Q250.6563,452.0781 250.0313,452.0781 Q248.6875,452.0781 248,453.1563 Q247.3125,454.2188 247.3125,456.3125 Q247.3125,458.4063 248,459.4844 Q248.6875,460.5469 250.0313,460.5469 Q250.6563,460.5469 251.25,460.2813 Q251.8438,460 252.4688,459.4219 L252.4688,462.1406 Z " fill="#000000"/><text fill="#000000" font-family="sans-serif" font-size="14" lengthAdjust="spacing" textLength="72.4814" x="263.5" y="461.3467">Conductor</text><line style="stroke:#181818;stroke-width:0.5;" x1="235.5" x2="337.9814" y1="472.5" y2="472.5"/><line style="stroke:#181818;stroke-width:0.5;" x1="235.5" x2="337.9814" y1="480.5" y2="480.5"/></g><!--class Cliente--><g id="elem_Cliente"><rect codeLine="21" fill="#F1F1F1" height="80.5938" id="Cliente" rx="2.5" ry="2.5" style="stroke:#181818;stroke-width:0.5;" width="100.3613" x="395.5" y="7"/><ellipse cx="419.148" cy="23" fill="#ADD1B2" rx="11" ry="11" style="stroke:#181818;stroke-width:1.0;"/><path d="M422.1167,28.6406 Q421.5386,28.9375 420.898,29.0781 Q420.2574,29.2344 419.5542,29.2344 Q417.0542,29.2344 415.7261,27.5938 Q414.4136,25.9375 414.4136,22.8125 Q414.4136,19.6875 415.7261,18.0313 Q417.0542,16.375 419.5542,16.375 Q420.2574,16.375 420.898,16.5313 Q421.5542,16.6875 422.1167,16.9844 L422.1167,19.7031 Q421.4917,19.125 420.898,18.8594 Q420.3042,18.5781 419.6792,18.5781 Q418.3355,18.5781 417.648,19.6563 Q416.9605,20.7188 416.9605,22.8125 Q416.9605,24.9063 417.648,25.9844 Q418.3355,27.0469 419.6792,27.0469 Q420.3042,27.0469 420.898,26.7813 Q421.4917,26.5 422.1167,25.9219 L422.1167,28.6406 Z " fill="#000000"/><text fill="#000000" font-family="sans-serif" font-size="14" lengthAdjust="spacing" textLength="49.1436" x="435.0698" y="27.8467">Cliente</text><line style="stroke:#181818;stroke-width:0.5;" x1="396.5" x2="494.8613" y1="39" y2="39"/><ellipse cx="406.5" cy="52.6484" fill="none" rx="3" ry="3" style="stroke:#038048;stroke-width:1.0;"/><text fill="#000000" font-family="sans-serif" font-size="14" lengthAdjust="spacing" textLength="55.9316" x="415.5" y="55.9951">Nombre</text><ellipse cx="406.5" cy="68.9453" fill="none" rx="3" ry="3" style="stroke:#038048;stroke-width:1.0;"/><text fill="#000000" font-family="sans-serif" font-size="14" lengthAdjust="spacing" textLength="74.3613" x="415.5" y="72.292">AbonoTipo</text><line style="stroke:#181818;stroke-width:0.5;" x1="396.5" x2="494.8613" y1="79.5938" y2="79.5938"/></g><!--class Abonos--><g id="elem_Abonos"><rect codeLine="26" fill="#F1F1F1" height="80.5938" id="Abonos" rx="2.5" ry="2.5" style="stroke:#181818;stroke-width:0.5;" width="89.0137" x="352" y="165"/><ellipse cx="369.3634" cy="181" fill="#ADD1B2" rx="11" ry="11" style="stroke:#181818;stroke-width:1.0;"/><path d="M372.3321,186.6406 Q371.754,186.9375 371.1134,187.0781 Q370.4728,187.2344 369.7696,187.2344 Q367.2696,187.2344 365.9415,185.5938 Q364.629,183.9375 364.629,180.8125 Q364.629,177.6875 365.9415,176.0313 Q367.2696,174.375 369.7696,174.375 Q370.4728,174.375 371.1134,174.5313 Q371.7696,174.6875 372.3321,174.9844 L372.3321,177.7031 Q371.7071,177.125 371.1134,176.8594 Q370.5196,176.5781 369.8946,176.5781 Q368.5509,176.5781 367.8634,177.6563 Q367.1759,178.7188 367.1759,180.8125 Q367.1759,182.9063 367.8634,183.9844 Q368.5509,185.0469 369.8946,185.0469 Q370.5196,185.0469 371.1134,184.7813 Q371.7071,184.5 372.3321,183.9219 L372.3321,186.6406 Z " fill="#000000"/><text fill="#000000" font-family="sans-serif" font-size="14" lengthAdjust="spacing" textLength="51.7617" x="383.8886" y="185.8467">Abonos</text><line style="stroke:#181818;stroke-width:0.5;" x1="353" x2="440.0137" y1="197" y2="197"/><ellipse cx="363" cy="210.6484" fill="none" rx="3" ry="3" style="stroke:#038048;stroke-width:1.0;"/><text fill="#000000" font-family="sans-serif" font-size="14" lengthAdjust="spacing" textLength="40.2842" x="372" y="213.9951">Tarifa</text><ellipse cx="363" cy="226.9453" fill="none" rx="3" ry="3" style="stroke:#038048;stroke-width:1.0;"/><text fill="#000000" font-family="sans-serif" font-size="14" lengthAdjust="spacing" textLength="63.0137" x="372" y="230.292">Duraci&#243;n</text><line style="stroke:#181818;stroke-width:0.5;" x1="353" x2="440.0137" y1="237.5938" y2="237.5938"/></g><!--class Ruta--><g id="elem_Ruta"><rect codeLine="31" fill="#F1F1F1" height="80.5938" id="Ruta" rx="2.5" ry="2.5" style="stroke:#181818;stroke-width:0.5;" width="95.2686" x="99" y="856"/><ellipse cx="127.7698" cy="872" fill="#ADD1B2" rx="11" ry="11" style="stroke:#181818;stroke-width:1.0;"/><path d="M130.7386,877.6406 Q130.1604,877.9375 129.5198,878.0781 Q128.8792,878.2344 128.1761,878.2344 Q125.6761,878.2344 124.3479,876.5938 Q123.0354,874.9375 123.0354,871.8125 Q123.0354,868.6875 124.3479,867.0313 Q125.6761,865.375 128.1761,865.375 Q128.8792,865.375 129.5198,865.5313 Q130.1761,865.6875 130.7386,865.9844 L130.7386,868.7031 Q130.1136,868.125 129.5198,867.8594 Q128.9261,867.5781 128.3011,867.5781 Q126.9573,867.5781 126.2698,868.6563 Q125.5823,869.7188 125.5823,871.8125 Q125.5823,873.9063 126.2698,874.9844 Q126.9573,876.0469 128.3011,876.0469 Q128.9261,876.0469 129.5198,875.7813 Q130.1136,875.5 130.7386,874.9219 L130.7386,877.6406 Z " fill="#000000"/><text fill="#000000" font-family="sans-serif" font-size="14" lengthAdjust="spacing" textLength="32.6689" x="144.8298" y="876.8467">Ruta</text><line style="stroke:#181818;stroke-width:0.5;" x1="100" x2="193.2686" y1="888" y2="888"/><ellipse cx="110" cy="901.6484" fill="none" rx="3" ry="3" style="stroke:#038048;stroke-width:1.0;"/><text fill="#000000" font-family="sans-serif" font-size="14" lengthAdjust="spacing" textLength="69.2686" x="119" y="904.9951">Comienzo</text><ellipse cx="110" cy="917.9453" fill="none" rx="3" ry="3" style="stroke:#038048;stroke-width:1.0;"/><text fill="#000000" font-family="sans-serif" font-size="14" lengthAdjust="spacing" textLength="20.8154" x="119" y="921.292">Fin</text><line style="stroke:#181818;stroke-width:0.5;" x1="100" x2="193.2686" y1="928.5938" y2="928.5938"/></g><!--class Paradas--><g id="elem_Paradas"><rect codeLine="36" fill="#F1F1F1" height="64.2969" id="Paradas" rx="2.5" ry="2.5" style="stroke:#181818;stroke-width:0.5;" width="134.5615" x="7" y="1022.5"/><ellipse cx="42.9004" cy="1038.5" fill="#ADD1B2" rx="11" ry="11" style="stroke:#181818;stroke-width:1.0;"/><path d="M45.8691,1044.1406 Q45.291,1044.4375 44.6504,1044.5781 Q44.0098,1044.7344 43.3066,1044.7344 Q40.8066,1044.7344 39.4785,1043.0938 Q38.166,1041.4375 38.166,1038.3125 Q38.166,1035.1875 39.4785,1033.5313 Q40.8066,1031.875 43.3066,1031.875 Q44.0098,1031.875 44.6504,1032.0313 Q45.3066,1032.1875 45.8691,1032.4844 L45.8691,1035.2031 Q45.2441,1034.625 44.6504,1034.3594 Q44.0566,1034.0781 43.4316,1034.0781 Q42.0879,1034.0781 41.4004,1035.1563 Q40.7129,1036.2188 40.7129,1038.3125 Q40.7129,1040.4063 41.4004,1041.4844 Q42.0879,1042.5469 43.4316,1042.5469 Q44.0566,1042.5469 44.6504,1042.2813 Q45.2441,1042 45.8691,1041.4219 L45.8691,1044.1406 Z " fill="#000000"/><text fill="#000000" font-family="sans-serif" font-size="14" lengthAdjust="spacing" textLength="56.1162" x="61.5449" y="1043.3467">Paradas</text><line style="stroke:#181818;stroke-width:0.5;" x1="8" x2="140.5615" y1="1054.5" y2="1054.5"/><ellipse cx="18" cy="1068.1484" fill="none" rx="3" ry="3" style="stroke:#038048;stroke-width:1.0;"/><text fill="#000000" font-family="sans-serif" font-size="14" lengthAdjust="spacing" textLength="108.5615" x="27" y="1071.4951">ListaDeParadas</text><line style="stroke:#181818;stroke-width:0.5;" x1="8" x2="140.5615" y1="1078.7969" y2="1078.7969"/></g><!--class Viaje--><g id="elem_Viaje"><rect codeLine="40" fill="#F1F1F1" height="64.2969" id="Viaje" rx="2.5" ry="2.5" style="stroke:#181818;stroke-width:0.5;" width="89.0137" x="221" y="731"/><ellipse cx="246.1092" cy="747" fill="#ADD1B2" rx="11" ry="11" style="stroke:#181818;stroke-width:1.0;"/><path d="M249.0779,752.6406 Q248.4998,752.9375 247.8592,753.0781 Q247.2186,753.2344 246.5154,753.2344 Q244.0154,753.2344 242.6873,751.5938 Q241.3748,749.9375 241.3748,746.8125 Q241.3748,743.6875 242.6873,742.0313 Q244.0154,740.375 246.5154,740.375 Q247.2186,740.375 247.8592,740.5313 Q248.5154,740.6875 249.0779,740.9844 L249.0779,743.7031 Q248.4529,743.125 247.8592,742.8594 Q247.2654,742.5781 246.6404,742.5781 Q245.2967,742.5781 244.6092,743.6563 Q243.9217,744.7188 243.9217,746.8125 Q243.9217,748.9063 244.6092,749.9844 Q245.2967,751.0469 246.6404,751.0469 Q247.2654,751.0469 247.8592,750.7813 Q248.4529,750.5 249.0779,749.9219 L249.0779,752.6406 Z " fill="#000000"/><text fill="#000000" font-family="sans-serif" font-size="14" lengthAdjust="spacing" textLength="34.5488" x="262.3557" y="751.8467">Viaje</text><line style="stroke:#181818;stroke-width:0.5;" x1="222" x2="309.0137" y1="763" y2="763"/><ellipse cx="232" cy="776.6484" fill="none" rx="3" ry="3" style="stroke:#038048;stroke-width:1.0;"/><text fill="#000000" font-family="sans-serif" font-size="14" lengthAdjust="spacing" textLength="63.0137" x="241" y="779.9951">Duraci&#243;n</text><line style="stroke:#181818;stroke-width:0.5;" x1="222" x2="309.0137" y1="787.2969" y2="787.2969"/></g><!--class Horario--><g id="elem_Horario"><rect codeLine="44" fill="#F1F1F1" height="80.5938" id="Horario" rx="2.5" ry="2.5" style="stroke:#181818;stroke-width:0.5;" width="83.6387" x="177.5" y="1014"/><ellipse cx="192.5" cy="1030" fill="#ADD1B2" rx="11" ry="11" style="stroke:#181818;stroke-width:1.0;"/><path d="M195.4688,1035.6406 Q194.8906,1035.9375 194.25,1036.0781 Q193.6094,1036.2344 192.9063,1036.2344 Q190.4063,1036.2344 189.0781,1034.5938 Q187.7656,1032.9375 187.7656,1029.8125 Q187.7656,1026.6875 189.0781,1025.0313 Q190.4063,1023.375 192.9063,1023.375 Q193.6094,1023.375 194.25,1023.5313 Q194.9063,1023.6875 195.4688,1023.9844 L195.4688,1026.7031 Q194.8438,1026.125 194.25,1025.8594 Q193.6563,1025.5781 193.0313,1025.5781 Q191.6875,1025.5781 191,1026.6563 Q190.3125,1027.7188 190.3125,1029.8125 Q190.3125,1031.9063 191,1032.9844 Q191.6875,1034.0469 193.0313,1034.0469 Q193.6563,1034.0469 194.25,1033.7813 Q194.8438,1033.5 195.4688,1032.9219 L195.4688,1035.6406 Z " fill="#000000"/><text fill="#000000" font-family="sans-serif" font-size="14" lengthAdjust="spacing" textLength="51.6387" x="206.5" y="1034.8467">Horario</text><line style="stroke:#181818;stroke-width:0.5;" x1="178.5" x2="260.1387" y1="1046" y2="1046"/><ellipse cx="188.5" cy="1059.6484" fill="none" rx="3" ry="3" style="stroke:#038048;stroke-width:1.0;"/><text fill="#000000" font-family="sans-serif" font-size="14" lengthAdjust="spacing" textLength="37.0439" x="197.5" y="1062.9951">Inicio</text><ellipse cx="188.5" cy="1075.9453" fill="none" rx="3" ry="3" style="stroke:#038048;stroke-width:1.0;"/><text fill="#000000" font-family="sans-serif" font-size="14" lengthAdjust="spacing" textLength="20.8154" x="197.5" y="1079.292">Fin</text><line style="stroke:#181818;stroke-width:0.5;" x1="178.5" x2="260.1387" y1="1086.5938" y2="1086.5938"/></g><!--class Incidencia--><g id="elem_Incidencia"><rect codeLine="49" fill="#F1F1F1" height="96.8906" id="Incidencia" rx="2.5" ry="2.5" style="stroke:#181818;stroke-width:0.5;" width="103.1279" x="96" y="416"/><ellipse cx="111" cy="432" fill="#ADD1B2" rx="11" ry="11" style="stroke:#181818;stroke-width:1.0;"/><path d="M113.9688,437.6406 Q113.3906,437.9375 112.75,438.0781 Q112.1094,438.2344 111.4063,438.2344 Q108.9063,438.2344 107.5781,436.5938 Q106.2656,434.9375 106.2656,431.8125 Q106.2656,428.6875 107.5781,427.0313 Q108.9063,425.375 111.4063,425.375 Q112.1094,425.375 112.75,425.5313 Q113.4063,425.6875 113.9688,425.9844 L113.9688,428.7031 Q113.3438,428.125 112.75,427.8594 Q112.1563,427.5781 111.5313,427.5781 Q110.1875,427.5781 109.5,428.6563 Q108.8125,429.7188 108.8125,431.8125 Q108.8125,433.9063 109.5,434.9844 Q110.1875,436.0469 111.5313,436.0469 Q112.1563,436.0469 112.75,435.7813 Q113.3438,435.5 113.9688,434.9219 L113.9688,437.6406 Z " fill="#000000"/><text fill="#000000" font-family="sans-serif" font-size="14" lengthAdjust="spacing" textLength="71.1279" x="125" y="436.8467">Incidencia</text><line style="stroke:#181818;stroke-width:0.5;" x1="97" x2="198.1279" y1="448" y2="448"/><ellipse cx="107" cy="461.6484" fill="none" rx="3" ry="3" style="stroke:#038048;stroke-width:1.0;"/><text fill="#000000" font-family="sans-serif" font-size="14" lengthAdjust="spacing" textLength="47.9609" x="116" y="464.9951">detalle</text><ellipse cx="107" cy="477.9453" fill="none" rx="3" ry="3" style="stroke:#038048;stroke-width:1.0;"/><text fill="#000000" font-family="sans-serif" font-size="14" lengthAdjust="spacing" textLength="41.8154" x="116" y="481.292">Fecha</text><ellipse cx="107" cy="494.2422" fill="none" rx="3" ry="3" style="stroke:#038048;stroke-width:1.0;"/><text fill="#000000" font-family="sans-serif" font-size="14" lengthAdjust="spacing" textLength="33.4277" x="116" y="497.5889">Hora</text><line style="stroke:#181818;stroke-width:0.5;" x1="97" x2="198.1279" y1="504.8906" y2="504.8906"/></g><!--link Ciudad to Compa??a--><g id="link_Ciudad_Compa&#241;&#237;a"><path codeLine="55" d="M256.5,79.69 C256.5,106.9 256.5,146.17 256.5,173.36 " fill="none" id="Ciudad-Compa&#241;&#237;a" style="stroke:#181818;stroke-width:1.0;"/></g><!--link Compa??a to Servicio--><g id="link_Compa&#241;&#237;a_Servicio"><path codeLine="56" d="M279.97,237.66 C296.11,259.1 317.21,287.12 331.91,306.64 " fill="none" id="Compa&#241;&#237;a-Servicio" style="stroke:#181818;stroke-width:1.0;"/></g><!--link Servicio to Flota--><g id="link_Servicio_Flota"><path codeLine="57" d="M359.74,355.21 C369.17,376.59 383.24,408.49 393.67,432.14 " fill="none" id="Servicio-Flota" style="stroke:#181818;stroke-width:1.0;"/></g><!--link Flota to Veh?culo--><g id="link_Flota_Veh&#237;culo"><path codeLine="58" d="M388.64,496.65 C376.74,515.55 360.62,539.82 344.5,560 C336.38,570.16 326.9,580.63 317.98,589.96 " fill="none" id="Flota-Veh&#237;culo" style="stroke:#181818;stroke-width:1.0;"/></g><!--link Veh?culo to Viaje--><g id="link_Veh&#237;culo_Viaje"><path codeLine="59" d="M281.79,654.19 C278.33,677.09 273.65,708.04 270.2,730.91 " fill="none" id="Veh&#237;culo-Viaje" style="stroke:#181818;stroke-width:1.0;"/></g><!--link Viaje to Ruta--><g id="link_Viaje_Ruta"><path codeLine="60" d="M237.3,795.16 C220.94,813.24 200.17,836.19 182.63,855.58 " fill="none" id="Viaje-Ruta" style="stroke:#181818;stroke-width:1.0;"/></g><!--link Ruta to Horario--><g id="link_Ruta_Horario"><path codeLine="61" d="M165.11,937.27 C176.09,960.74 189.95,990.35 200.92,1013.8 " fill="none" id="Ruta-Horario" style="stroke:#181818;stroke-width:1.0;"/><text fill="#000000" font-family="sans-serif" font-size="13" lengthAdjust="spacing" textLength="32.9443" x="186.5" y="980.0669">tiene</text></g><!--link Ruta to Paradas--><g id="link_Ruta_Paradas"><path codeLine="62" d="M128.15,937.27 C115.94,963.72 100.13,997.96 88.85,1022.41 " fill="none" id="Ruta-Paradas" style="stroke:#181818;stroke-width:1.0;"/><text fill="#000000" font-family="sans-serif" font-size="13" lengthAdjust="spacing" textLength="46.541" x="114.5" y="980.0669">incluye</text></g><!--link Ruta to Servicio--><g id="link_Ruta_Servicio"><path codeLine="63" d="M98.76,861.47 C71.42,837.71 42.5,803.29 42.5,764 C42.5,463.5 42.5,463.5 42.5,463.5 C42.5,350.58 220.17,333.36 305.19,331.59 " fill="none" id="Ruta-Servicio" style="stroke:#181818;stroke-width:1.0;"/></g><!--link Cliente to Abonos--><g id="link_Cliente_Abonos"><path codeLine="64" d="M433.01,88.27 C425.64,111.74 416.34,141.35 408.97,164.8 " fill="none" id="Cliente-Abonos" style="stroke:#181818;stroke-width:1.0;"/><text fill="#000000" font-family="sans-serif" font-size="13" lengthAdjust="spacing" textLength="32.4365" x="422.5" y="131.0669">paga</text></g><!--link Cliente to Veh?culo--><g id="link_Cliente_Veh&#237;culo"><path codeLine="65" d="M465.29,88.16 C478.89,119.06 494.5,163.48 494.5,204.5 C494.5,204.5 494.5,204.5 494.5,465.5 C494.5,545.75 393.94,589.58 332.66,608.84 " fill="none" id="Cliente-Veh&#237;culo" style="stroke:#181818;stroke-width:1.0;"/><text fill="#000000" font-family="sans-serif" font-size="13" lengthAdjust="spacing" textLength="22.9785" x="495.5" y="335.5669">usa</text></g><!--link Conductor to Veh?culo--><g id="link_Conductor_Veh&#237;culo"><path codeLine="66" d="M286.5,488.78 C286.5,515.64 286.5,559.92 286.5,589.76 " fill="none" id="Conductor-Veh&#237;culo" style="stroke:#181818;stroke-width:1.0;"/><text fill="#000000" font-family="sans-serif" font-size="13" lengthAdjust="spacing" textLength="48.4453" x="287.5" y="556.0669">maneja</text></g><!--link Incidencia to Veh?culo--><g id="link_Incidencia_Veh&#237;culo"><path codeLine="67" d="M189.96,513 C212.31,538.01 239.09,567.96 258.77,589.98 " fill="none" id="Incidencia-Veh&#237;culo" style="stroke:#181818;stroke-width:1.0;stroke-dasharray:7.0,7.0;"/><text fill="#000000" font-family="sans-serif" font-size="13" lengthAdjust="spacing" textLength="40.752" x="230.5" y="556.0669">afecta</text></g><!--link Incidencia to Ruta--><g id="link_Incidencia_Ruta"><path codeLine="68" d="M147.39,513.16 C147.19,598.66 146.78,776.55 146.59,855.86 " fill="none" id="Incidencia-Ruta" style="stroke:#181818;stroke-width:1.0;stroke-dasharray:7.0,7.0;"/><text fill="#000000" font-family="sans-serif" font-size="13" lengthAdjust="spacing" textLength="40.752" x="148.5" y="697.0669">afecta</text></g><!--link Abonos to Servicio--><g id="link_Abonos_Servicio"><path codeLine="69" d="M381.37,246.26 C373.75,266.28 364.78,289.86 358.3,306.88 " fill="none" id="Abonos-Servicio" style="stroke:#181818;stroke-width:1.0;"/></g><!--SRC=[RLBBRi8m4BpxAoAk5Nn0RnK85Qcg4ArwNvm5Z1mR-L6fhVf97Af-GdwiwyGl2Zb4sPtnUcOdN8ArpLpu5jhcYpNqt3KSf4JBlXdZ8wox4_G__HaovHMCsC46zrw22KpOMcU0ksOyyeBcNN2XquYbrAwSTkAao_WtFFHdxgKkqo_mkLQjvqwRt902bSDCVzRTrc0i7hPQwSi1Gyl-qnwBXIVLelzLXRxnbLJoJfTzwbWkHKLSWu4Mok0dOHqiCBOhWmAEHUsD6n-r8Kt5_qeDkxjnvKfnqIAzYi8MNSWhiP4VahSmDXoDyKwdLPAi2fM0d5Vw2CqXD3P6HsNEYPN4GZkuOwD7AiFssB12AfAn-sRYQ8quoKZQ7I52SUa_AYoBIK5JBsP8z1FiOL93HGsXtWOm_J5NS0SAZyIezZYRNL9WXznTKGPj5HhrL6h_0000]--></g></svg>