<svg xmlns="http://www.w3.org/2000/svg" xmlns:xlink="http://www.w3.org/1999/xlink" contentStyleType="text/css" height="825px" preserveAspectRatio="none" style="width:469px;height:825px;background:#FFFFFF;" version="1.1" viewBox="0 0 469 825" width="469px" zoomAndPan="magnify"><defs/><g><g id="elem_Santander"><rect fill="#F1F1F1" height="44.5938" style="stroke:#181818;stroke-width:0.5;" width="106.4863" x="60.5" y="7"/><text fill="#000000" font-family="sans-serif" font-size="14" lengthAdjust="spacing" textLength="72.5361" x="77.4751" y="21.9951">Santander</text><line style="stroke:#181818;stroke-width:0.5;" x1="61.5" x2="165.9863" y1="27.2969" y2="27.2969"/><text fill="#000000" font-family="sans-serif" font-size="14" lengthAdjust="spacing" textLength="94.4863" x="66.5" y="44.292">ListaDeCalles</text></g><g id="elem_Alsa"><rect fill="#F1F1F1" height="36.2969" style="stroke:#181818;stroke-width:0.5;" width="43.3398" x="7" y="117.5"/><text fill="#000000" font-family="sans-serif" font-size="14" lengthAdjust="spacing" textLength="29.3398" x="14" y="132.4951">Alsa</text><line style="stroke:#181818;stroke-width:0.5;" x1="8" x2="49.3398" y1="137.7969" y2="137.7969"/></g><g id="elem_Servicio"><rect fill="#F1F1F1" height="36.2969" style="stroke:#181818;stroke-width:0.5;" width="69.583" x="209.5" y="11.5"/><text fill="#000000" font-family="sans-serif" font-size="14" lengthAdjust="spacing" textLength="55.583" x="216.5" y="26.4951">Servicio</text><line style="stroke:#181818;stroke-width:0.5;" x1="210.5" x2="278.083" y1="31.7969" y2="31.7969"/></g><g id="elem_Tus"><rect fill="#F1F1F1" height="44.5938" style="stroke:#181818;stroke-width:0.5;" width="167.3193" x="85" y="113"/><text fill="#000000" font-family="sans-serif" font-size="14" lengthAdjust="spacing" textLength="24.7188" x="156.3003" y="127.9951">Tus</text><line style="stroke:#181818;stroke-width:0.5;" x1="86" x2="251.3193" y1="133.2969" y2="133.2969"/><text fill="#000000" font-family="sans-serif" font-size="14" lengthAdjust="spacing" textLength="155.3193" x="91" y="150.292">TarifaRegular = &#8364;1,30</text></g><g id="elem_Flota"><rect fill="#F1F1F1" height="44.5938" style="stroke:#181818;stroke-width:0.5;" width="88.2959" x="38.5" y="271"/><text fill="#000000" font-family="sans-serif" font-size="14" lengthAdjust="spacing" textLength="34.5762" x="65.3599" y="285.9951">Flota</text><line style="stroke:#181818;stroke-width:0.5;" x1="39.5" x2="125.7959" y1="291.2969" y2="291.2969"/><text fill="#000000" font-family="sans-serif" font-size="14" lengthAdjust="spacing" textLength="76.2959" x="44.5" y="308.292">Tipo = Bus</text></g><g id="elem_TarjetaRoja"><rect fill="#F1F1F1" height="60.8906" style="stroke:#181818;stroke-width:0.5;" width="154.4541" x="163.5" y="401"/><text fill="#000000" font-family="sans-serif" font-size="14" lengthAdjust="spacing" textLength="80.2197" x="200.6172" y="415.9951">TarjetaRoja</text><line style="stroke:#181818;stroke-width:0.5;" x1="164.5" x2="316.9541" y1="421.2969" y2="421.2969"/><text fill="#000000" font-family="sans-serif" font-size="14" lengthAdjust="spacing" textLength="87.6367" x="169.5" y="438.292">Tarifa = &#8364;25</text><text fill="#000000" font-family="sans-serif" font-size="14" lengthAdjust="spacing" textLength="142.4541" x="169.5" y="454.5889">Duraci&#243;n = 3 meses</text></g><g id="elem_Cliente"><rect fill="#F1F1F1" height="60.8906" style="stroke:#181818;stroke-width:0.5;" width="157.3184" x="162" y="263"/><text fill="#000000" font-family="sans-serif" font-size="14" lengthAdjust="spacing" textLength="49.1436" x="216.0874" y="277.9951">Cliente</text><line style="stroke:#181818;stroke-width:0.5;" x1="163" x2="318.3184" y1="283.2969" y2="283.2969"/><text fill="#000000" font-family="sans-serif" font-size="14" lengthAdjust="spacing" textLength="108.3633" x="168" y="300.292">Nombre = Sara</text><text fill="#000000" font-family="sans-serif" font-size="14" lengthAdjust="spacing" textLength="145.3184" x="168" y="316.5889">Abono = TarjetaRoja</text></g><g id="elem_Conductor"><rect fill="#F1F1F1" height="36.2969" style="stroke:#181818;stroke-width:0.5;" width="86.4814" x="43.5" y="551.5"/><text fill="#000000" font-family="sans-serif" font-size="14" lengthAdjust="spacing" textLength="72.4814" x="50.5" y="566.4951">Conductor</text><line style="stroke:#181818;stroke-width:0.5;" x1="44.5" x2="128.9814" y1="571.7969" y2="571.7969"/></g><g id="elem_Veh&#237;culo"><rect fill="#F1F1F1" height="44.5938" style="stroke:#181818;stroke-width:0.5;" width="88.2959" x="40.5" y="409"/><text fill="#000000" font-family="sans-serif" font-size="14" lengthAdjust="spacing" textLength="59.9785" x="54.6587" y="423.9951">Veh&#237;culo</text><line style="stroke:#181818;stroke-width:0.5;" x1="41.5" x2="127.7959" y1="429.2969" y2="429.2969"/><text fill="#000000" font-family="sans-serif" font-size="14" lengthAdjust="spacing" textLength="76.2959" x="46.5" y="446.292">Tipo = Bus</text></g><g id="elem_Incidencia"><rect fill="#F1F1F1" height="44.5938" style="stroke:#181818;stroke-width:0.5;" width="97.9893" x="313.5" y="188"/><text fill="#000000" font-family="sans-serif" font-size="14" lengthAdjust="spacing" textLength="71.1279" x="326.9307" y="202.9951">Incidencia</text><line style="stroke:#181818;stroke-width:0.5;" x1="314.5" x2="410.4893" y1="208.2969" y2="208.2969"/><text fill="#000000" font-family="sans-serif" font-size="14" lengthAdjust="spacing" textLength="85.9893" x="319.5" y="225.292">CierranCalle</text></g><g id="elem_Paradas"><rect fill="#F1F1F1" height="44.5938" style="stroke:#181818;stroke-width:0.5;" width="120.5615" x="198" y="677"/><text fill="#000000" font-family="sans-serif" font-size="14" lengthAdjust="spacing" textLength="56.1162" x="230.2227" y="691.9951">Paradas</text><line style="stroke:#181818;stroke-width:0.5;" x1="199" x2="317.5615" y1="697.2969" y2="697.2969"/><text fill="#000000" font-family="sans-serif" font-size="14" lengthAdjust="spacing" textLength="108.5615" x="204" y="714.292">ListaDeParadas</text></g><g id="elem_Linea13"><rect fill="#F1F1F1" height="60.8906" style="stroke:#181818;stroke-width:0.5;" width="134.9307" x="175" y="539"/><text fill="#000000" font-family="sans-serif" font-size="14" lengthAdjust="spacing" textLength="55.5693" x="214.6807" y="553.9951">Linea13</text><line style="stroke:#181818;stroke-width:0.5;" x1="176" x2="308.9307" y1="559.2969" y2="559.2969"/><text fill="#000000" font-family="sans-serif" font-size="14" lengthAdjust="spacing" textLength="122.9307" x="181" y="576.292">Comienzo = Lluja</text><text fill="#000000" font-family="sans-serif" font-size="14" lengthAdjust="spacing" textLength="82.7627" x="181" y="592.5889">Fin = Cueto</text></g><g id="elem_PrimerViaje"><rect fill="#F1F1F1" height="44.5938" style="stroke:#181818;stroke-width:0.5;" width="151.6035" x="10.5" y="677"/><text fill="#000000" font-family="sans-serif" font-size="14" lengthAdjust="spacing" textLength="80.6436" x="45.98" y="691.9951">PrimerViaje</text><line style="stroke:#181818;stroke-width:0.5;" x1="11.5" x2="161.1035" y1="697.2969" y2="697.2969"/><text fill="#000000" font-family="sans-serif" font-size="14" lengthAdjust="spacing" textLength="139.6035" x="16.5" y="714.292">Duraci&#243;n = 40 mins</text></g><g id="elem_Horario"><rect fill="#F1F1F1" height="36.2969" style="stroke:#181818;stroke-width:0.5;" width="65.6387" x="196.5" y="783"/><text fill="#000000" font-family="sans-serif" font-size="14" lengthAdjust="spacing" textLength="51.6387" x="203.5" y="797.9951">Horario</text><line style="stroke:#181818;stroke-width:0.5;" x1="197.5" x2="261.1387" y1="803.2969" y2="803.2969"/></g><!--link Santander to Tus--><g id="link_Santander_Tus"><path codeLine="52" d="M124.9,52.05 C134.34,69.9 147.68,95.14 157.12,112.98 " fill="none" id="Santander-Tus" style="stroke:#181818;stroke-width:1.0;"/></g><!--link Santander to Alsa--><g id="link_Santander_Alsa"><path codeLine="53" d="M95.89,52.05 C80.04,71.44 57.05,99.57 42.44,117.44 " fill="none" id="Santander-Alsa" style="stroke:#181818;stroke-width:1.0;"/></g><!--link Tus to Flota--><g id="link_Tus_Flota"><path codeLine="54" d="M156.54,158.19 C140.11,188 110.73,241.29 94.36,270.99 " fill="none" id="Tus-Flota" style="stroke:#181818;stroke-width:1.0;"/></g><!--link Flota to Veh?culo--><g id="link_Flota_Veh&#237;culo"><path codeLine="55" d="M82.82,316.05 C83.19,341.37 83.8,383.13 84.18,408.6 " fill="none" id="Flota-Veh&#237;culo" style="stroke:#181818;stroke-width:1.0;"/></g><!--link Veh?culo to Conductor--><g id="link_Veh&#237;culo_Conductor"><path codeLine="56" d="M84.82,454.05 C85.21,481.01 85.88,526.64 86.25,551.36 " fill="none" id="Veh&#237;culo-Conductor" style="stroke:#181818;stroke-width:1.0;"/></g><!--link Conductor to PrimerViaje--><g id="link_Conductor_PrimerViaje"><path codeLine="57" d="M86.5,587.76 C86.5,610.83 86.5,651.7 86.5,676.82 " fill="none" id="Conductor-PrimerViaje" style="stroke:#181818;stroke-width:1.0;"/></g><!--link Cliente to TarjetaRoja--><g id="link_Cliente_TarjetaRoja"><path codeLine="58" d="M240.5,324.01 C240.5,346.67 240.5,377.82 240.5,400.58 " fill="none" id="Cliente-TarjetaRoja" style="stroke:#181818;stroke-width:1.0;"/></g><!--link Cliente to Veh?culo--><g id="link_Cliente_Veh&#237;culo"><path codeLine="59" d="M206.65,324.01 C177.44,349.48 135.9,385.69 109.58,408.63 " fill="none" id="Cliente-Veh&#237;culo" style="stroke:#181818;stroke-width:1.0;"/><text fill="#000000" font-family="sans-serif" font-size="13" lengthAdjust="spacing" textLength="22.9785" x="173.5" y="367.0669">usa</text></g><!--link Linea13 to Paradas--><g id="link_Linea13_Paradas"><path codeLine="60" d="M246.21,600.19 C249.15,623.67 253.18,655.91 255.81,676.97 " fill="none" id="Linea13-Paradas" style="stroke:#181818;stroke-width:1.0;"/><text fill="#000000" font-family="sans-serif" font-size="13" lengthAdjust="spacing" textLength="32.9443" x="252.5" y="643.0669">tiene</text></g><!--link Linea13 to PrimerViaje--><g id="link_Linea13_PrimerViaje"><path codeLine="61" d="M206.32,600.19 C177.7,623.67 138.41,655.91 112.74,676.97 " fill="none" id="Linea13-PrimerViaje" style="stroke:#181818;stroke-width:1.0;"/></g><!--link PrimerViaje to Horario--><g id="link_PrimerViaje_Horario"><path codeLine="62" d="M117.53,722.09 C143.65,740.27 180.52,765.92 204.71,782.75 " fill="none" id="PrimerViaje-Horario" style="stroke:#181818;stroke-width:1.0;"/></g><!--link Servicio to Incidencia--><g id="link_Servicio_Incidencia"><path codeLine="63" d="M255.81,47.66 C277.45,80.48 324.62,152.04 348.32,187.99 " fill="none" id="Servicio-Incidencia" style="stroke:#181818;stroke-width:1.0;"/></g><!--link Servicio to Tus--><g id="link_Servicio_Tus"><path codeLine="64" d="M231.95,47.67 C218.88,65.56 198.38,93.62 184.23,112.97 " fill="none" id="Servicio-Tus" style="stroke:#181818;stroke-width:1.0;"/></g><!--link Incidencia to Horario--><g id="link_Incidencia_Horario"><path codeLine="65" d="M364.84,233.08 C367.8,262.2 372.5,315.7 372.5,361.5 C372.5,361.5 372.5,361.5 372.5,700.5 C372.5,753.73 304.91,780.8 262.67,792.52 " fill="none" id="Incidencia-Horario" style="stroke:#181818;stroke-width:1.0;stroke-dasharray:7.0,7.0;"/><text fill="#000000" font-family="sans-serif" font-size="13" lengthAdjust="spacing" textLength="87.731" x="373.5" y="505.0669">relaci&#243;n d&#233;bil</text></g><!--SRC=[VL91JiCm4Bpd5LRFj6efN2fnAAaga2g4sghtJRB0HewD79i3Y0k_GO8JJ-XFU0dhD4wS2pb4zdXtPZrZdPMOMx43PK4LQCHR8lZRK6rXXIb8YNNodYJwLBUKDNIR7PeNoabtmDxLRVyU33t05X-T12EknE_7r-niFesOrb9R2DNqhBdesiLIJ56YXQqkOK1wOZk_RA2LCv3JyKSnEXSLreDfKqceBBRjTxhA37BX3Wmqo3BJoWj7Kd6tLeNBhJOTSi2dutVkfFvlxbkLKu7y2sEdXCQ0QhoCwkvvYWBgeU4j69LjI27Cve5BLtobLw-waQuyNMDD_lgfGwjZVaCLcWD16Go8pRgOYefKB7IZ3VlBOVPlOJpsaGw1vWNue7dTP9YSakHjPq_I6yLmxsEtyd0qNnA2ye9H5X7SCow4umc2BPweDN8XB9VZu2ZIYFtWet3Ty8WzraStWBq7KQgJIMXcoP51sPfQ73ypagC_]--></g></svg>