<svg xmlns="http://www.w3.org/2000/svg" xmlns:xlink="http://www.w3.org/1999/xlink" contentStyleType="text/css" height="654px" preserveAspectRatio="none" style="width:311px;height:654px;background:#FFFFFF;" version="1.1" viewBox="0 0 311 654" width="311px" zoomAndPan="magnify"><defs/><g><path d="M19.5,7 L285.896,7 A12.5,12.5 0 0 1 298.396,19.5 L298.396,33.2969 L7,33.2969 L7,19.5 A12.5,12.5 0 0 1 19.5,7 " fill="#F1F1F1" style="stroke:#F1F1F1;stroke-width:1.0;"/><rect fill="none" height="641.2969" rx="12.5" ry="12.5" style="stroke:#181818;stroke-width:0.5;" width="291.396" x="7" y="7"/><line style="stroke:#181818;stroke-width:0.5;" x1="7" x2="298.396" y1="33.2969" y2="33.2969"/><text fill="#000000" font-family="sans-serif" font-size="14" lengthAdjust="spacing" textLength="71.1279" x="117.134" y="24.9951">Incidencia</text><ellipse cx="89" cy="54.2969" fill="#222222" rx="10" ry="10" style="stroke:#222222;stroke-width:1.0;"/><g id="Incidencia.CrearIncidencia"><rect fill="#F1F1F1" height="50" rx="12.5" ry="12.5" style="stroke:#181818;stroke-width:0.5;" width="129.6074" x="24" y="117.2969"/><line style="stroke:#181818;stroke-width:0.5;" x1="24" x2="153.6074" y1="143.5938" y2="143.5938"/><text fill="#000000" font-family="sans-serif" font-size="14" lengthAdjust="spacing" textLength="109.6074" x="34" y="135.292">CrearIncidencia</text></g><g id="Incidencia.NotificarServicio"><rect fill="#F1F1F1" height="50" rx="12.5" ry="12.5" style="stroke:#181818;stroke-width:0.5;" width="134.8506" x="21.5" y="220.2969"/><line style="stroke:#181818;stroke-width:0.5;" x1="21.5" x2="156.3506" y1="246.5938" y2="246.5938"/><text fill="#000000" font-family="sans-serif" font-size="14" lengthAdjust="spacing" textLength="114.8506" x="31.5" y="238.292">NotificarServicio</text></g><g id="Incidencia.AlterarHorario"><rect fill="#F1F1F1" height="50" rx="12.5" ry="12.5" style="stroke:#181818;stroke-width:0.5;" width="119.2988" x="29.5" y="323.2969"/><line style="stroke:#181818;stroke-width:0.5;" x1="29.5" x2="148.7988" y1="349.5938" y2="349.5938"/><text fill="#000000" font-family="sans-serif" font-size="14" lengthAdjust="spacing" textLength="99.2988" x="39.5" y="341.292">AlterarHorario</text></g><g id="Incidencia.ModificarServicio"><rect fill="#F1F1F1" height="50" rx="12.5" ry="12.5" style="stroke:#181818;stroke-width:0.5;" width="139.8545" x="19" y="426.2969"/><line style="stroke:#181818;stroke-width:0.5;" x1="19" x2="158.8545" y1="452.5938" y2="452.5938"/><text fill="#000000" font-family="sans-serif" font-size="14" lengthAdjust="spacing" textLength="119.8545" x="29" y="444.292">ModificarServicio</text></g><g id="Incidencia.FinIncidencia"><rect fill="#F1F1F1" height="50" rx="12.5" ry="12.5" style="stroke:#181818;stroke-width:0.5;" width="111.9434" x="33" y="529.2969"/><line style="stroke:#181818;stroke-width:0.5;" x1="33" x2="144.9434" y1="555.5938" y2="555.5938"/><text fill="#000000" font-family="sans-serif" font-size="14" lengthAdjust="spacing" textLength="91.9434" x="43" y="547.292">FinIncidencia</text></g><ellipse cx="89" cy="627.2969" fill="none" rx="11" ry="11" style="stroke:#222222;stroke-width:1.0;"/><ellipse cx="89" cy="627.2969" fill="#222222" rx="6" ry="6" style="stroke:#222222;stroke-width:1.0;"/><!--link *start*Incidencia to CrearIncidencia--><g id="link_*start*Incidencia_CrearIncidencia"><path d="M89,64.4969 C89,76.9769 89,93.7169 89,111.2269 " fill="none" id="*start*Incidencia-to-CrearIncidencia" style="stroke:#181818;stroke-width:1.0;"/><polygon fill="#181818" points="89,117.2269,93,108.2269,89,112.2269,85,108.2269,89,117.2269" style="stroke:#181818;stroke-width:1.0;"/><text fill="#000000" font-family="sans-serif" font-size="13" lengthAdjust="spacing" textLength="159.3325" x="90" y="95.3638">"Se crea una incidencia"</text></g><!--link CrearIncidencia to NotificarServicio--><g id="link_CrearIncidencia_NotificarServicio"><path d="M89,167.4869 C89,183.3669 89,198.0469 89,213.9569 " fill="none" id="CrearIncidencia-to-NotificarServicio" style="stroke:#181818;stroke-width:1.0;"/><polygon fill="#181818" points="89,219.9569,93,210.9569,89,214.9569,85,210.9569,89,219.9569" style="stroke:#181818;stroke-width:1.0;"/><text fill="#000000" font-family="sans-serif" font-size="13" lengthAdjust="spacing" textLength="150.522" x="90" y="198.3638">"Se notifica al servicio"</text></g><!--link NotificarServicio to AlterarHorario--><g id="link_NotificarServicio_AlterarHorario"><path d="M89,270.4869 C89,286.3669 89,301.0469 89,316.9569 " fill="none" id="NotificarServicio-to-AlterarHorario" style="stroke:#181818;stroke-width:1.0;"/><polygon fill="#181818" points="89,322.9569,93,313.9569,89,317.9569,85,313.9569,89,322.9569" style="stroke:#181818;stroke-width:1.0;"/><text fill="#000000" font-family="sans-serif" font-size="13" lengthAdjust="spacing" textLength="136.6143" x="90" y="301.3638">"Se altera el horario"</text></g><!--link AlterarHorario to ModificarServicio--><g id="link_AlterarHorario_ModificarServicio"><path d="M89,373.4869 C89,389.3669 89,404.0469 89,419.9569 " fill="none" id="AlterarHorario-to-ModificarServicio" style="stroke:#181818;stroke-width:1.0;"/><polygon fill="#181818" points="89,425.9569,93,416.9569,89,420.9569,85,416.9569,89,425.9569" style="stroke:#181818;stroke-width:1.0;"/><text fill="#000000" font-family="sans-serif" font-size="13" lengthAdjust="spacing" textLength="198.396" x="90" y="404.3638">"Modificaciones en el servicio"</text></g><!--link ModificarServicio to FinIncidencia--><g id="link_ModificarServicio_FinIncidencia"><path d="M89,476.4869 C89,492.3669 89,507.0469 89,522.9569 " fill="none" id="ModificarServicio-to-FinIncidencia" style="stroke:#181818;stroke-width:1.0;"/><polygon fill="#181818" points="89,528.9569,93,519.9569,89,523.9569,85,519.9569,89,528.9569" style="stroke:#181818;stroke-width:1.0;"/><text fill="#000000" font-family="sans-serif" font-size="13" lengthAdjust="spacing" textLength="137.3379" x="90" y="507.3638">"Fin de la incidencia"</text></g><!--link FinIncidencia to *end*Incidencia--><g id="link_FinIncidencia_*end*Incidencia"><path d="M89,579.3369 C89,591.8869 89,600.5769 89,610.1469 " fill="none" id="FinIncidencia-to-*end*Incidencia" style="stroke:#181818;stroke-width:1.0;"/><polygon fill="#181818" points="89,616.1469,93,607.1469,89,611.1469,85,607.1469,89,616.1469" style="stroke:#181818;stroke-width:1.0;"/></g><!--SRC=[PP0n2y9038Nt_ef7Hw5_m44GGNJGfQCuX6l4m747TwUB-D_DjTNQNeP0Njxx28c94gC-EYCTQwCQ536DU5NGkgokQ9eDTe4f_6tNg5k6KHKFHv09qyUMzemu-oGtCHHQ3aynuaU86tMGHHnN0wLCPCxM9WuK3bxR3qAz2BQu3_f0M7Xp_EIxyeolgAFZ27QPD3-cp6NQNjpyAogWOzZo9tDh3kjpg_S7]--></g></svg>