<svg xmlns="http://www.w3.org/2000/svg" xmlns:xlink="http://www.w3.org/1999/xlink" contentStyleType="text/css" height="590px" preserveAspectRatio="none" style="width:252px;height:590px;background:#FFFFFF;" version="1.1" viewBox="0 0 252 590" width="252px" zoomAndPan="magnify"><defs/><g><path d="M19.5,7 L226.3638,7 A12.5,12.5 0 0 1 238.8638,19.5 L238.8638,33.2969 L7,33.2969 L7,19.5 A12.5,12.5 0 0 1 19.5,7 " fill="#F1F1F1" style="stroke:#F1F1F1;stroke-width:1.0;"/><rect fill="none" height="577.2969" rx="12.5" ry="12.5" style="stroke:#181818;stroke-width:0.5;" width="231.8638" x="7" y="7"/><line style="stroke:#181818;stroke-width:0.5;" x1="7" x2="238.8638" y1="33.2969" y2="33.2969"/><text fill="#000000" font-family="sans-serif" font-size="14" lengthAdjust="spacing" textLength="32.6689" x="106.5974" y="24.9951">Ruta</text><ellipse cx="79.5" cy="54.2969" fill="#222222" rx="10" ry="10" style="stroke:#222222;stroke-width:1.0;"/><g id="Ruta.SinEmpezar"><rect fill="#F1F1F1" height="50" rx="12.5" ry="12.5" style="stroke:#181818;stroke-width:0.5;" width="103.3164" x="28" y="101.2969"/><line style="stroke:#181818;stroke-width:0.5;" x1="28" x2="131.3164" y1="127.5938" y2="127.5938"/><text fill="#000000" font-family="sans-serif" font-size="14" lengthAdjust="spacing" textLength="83.3164" x="38" y="119.292">SinEmpezar</text></g><g id="Ruta.IniciarRuta"><rect fill="#F1F1F1" height="50" rx="12.5" ry="12.5" style="stroke:#181818;stroke-width:0.5;" width="95.4824" x="32" y="204.2969"/><line style="stroke:#181818;stroke-width:0.5;" x1="32" x2="127.4824" y1="230.5938" y2="230.5938"/><text fill="#000000" font-family="sans-serif" font-size="14" lengthAdjust="spacing" textLength="75.4824" x="42" y="222.292">IniciarRuta</text></g><g id="Ruta.HacerParada"><rect fill="#F1F1F1" height="50" rx="12.5" ry="12.5" style="stroke:#181818;stroke-width:0.5;" width="109.9951" x="24.5" y="291.2969"/><line style="stroke:#181818;stroke-width:0.5;" x1="24.5" x2="134.4951" y1="317.5938" y2="317.5938"/><text fill="#000000" font-family="sans-serif" font-size="14" lengthAdjust="spacing" textLength="89.9951" x="34.5" y="309.292">HacerParada</text></g><g id="Ruta.ContinuarRuta"><rect fill="#F1F1F1" height="50" rx="12.5" ry="12.5" style="stroke:#181818;stroke-width:0.5;" width="121.3428" x="19" y="378.2969"/><line style="stroke:#181818;stroke-width:0.5;" x1="19" x2="140.3428" y1="404.5938" y2="404.5938"/><text fill="#000000" font-family="sans-serif" font-size="14" lengthAdjust="spacing" textLength="101.3428" x="29" y="396.292">ContinuarRuta</text></g><g id="Ruta.FinalizarRuta"><rect fill="#F1F1F1" height="50" rx="12.5" ry="12.5" style="stroke:#181818;stroke-width:0.5;" width="111.5264" x="23.5" y="465.2969"/><line style="stroke:#181818;stroke-width:0.5;" x1="23.5" x2="135.0264" y1="491.5938" y2="491.5938"/><text fill="#000000" font-family="sans-serif" font-size="14" lengthAdjust="spacing" textLength="91.5264" x="33.5" y="483.292">FinalizarRuta</text></g><ellipse cx="79.5" cy="563.2969" fill="none" rx="11" ry="11" style="stroke:#222222;stroke-width:1.0;"/><ellipse cx="79.5" cy="563.2969" fill="#222222" rx="6" ry="6" style="stroke:#222222;stroke-width:1.0;"/><!--link *start*Ruta to SinEmpezar--><g id="link_*start*Ruta_SinEmpezar"><path d="M79.5,64.4469 C79.5,73.7169 79.5,82.4369 79.5,95.0769 " fill="none" id="*start*Ruta-to-SinEmpezar" style="stroke:#181818;stroke-width:1.0;"/><polygon fill="#181818" points="79.5,101.0769,83.5,92.0769,79.5,96.0769,75.5,92.0769,79.5,101.0769" style="stroke:#181818;stroke-width:1.0;"/></g><!--link SinEmpezar to IniciarRuta--><g id="link_SinEmpezar_IniciarRuta"><path d="M79.5,151.4869 C79.5,167.3669 79.5,182.0469 79.5,197.9569 " fill="none" id="SinEmpezar-to-IniciarRuta" style="stroke:#181818;stroke-width:1.0;"/><polygon fill="#181818" points="79.5,203.9569,83.5,194.9569,79.5,198.9569,75.5,194.9569,79.5,203.9569" style="stroke:#181818;stroke-width:1.0;"/><text fill="#000000" font-family="sans-serif" font-size="13" lengthAdjust="spacing" textLength="148.3638" x="80.5" y="182.3638">"Conductor inicia ruta"</text></g><!--link IniciarRuta to HacerParada--><g id="link_IniciarRuta_HacerParada"><path d="M79.5,254.4269 C79.5,265.9169 79.5,273.6169 79.5,285.1069 " fill="none" id="IniciarRuta-to-HacerParada" style="stroke:#181818;stroke-width:1.0;"/><polygon fill="#181818" points="79.5,291.1069,83.5,282.1069,79.5,286.1069,75.5,282.1069,79.5,291.1069" style="stroke:#181818;stroke-width:1.0;"/></g><!--link HacerParada to ContinuarRuta--><g id="link_HacerParada_ContinuarRuta"><path d="M73.34,341.4269 C72.55,352.9169 72.1384,360.631 72.9284,372.121 " fill="none" id="HacerParada-to-ContinuarRuta" style="stroke:#181818;stroke-width:1.0;"/><polygon fill="#181818" points="73.34,378.1069,76.7132,368.8537,72.997,373.1187,68.7321,369.4024,73.34,378.1069" style="stroke:#181818;stroke-width:1.0;"/></g><!--link ContinuarRuta to HacerParada--><g id="link_ContinuarRuta_HacerParada"><path d="M85.66,378.1069 C86.45,366.6169 86.8616,358.9027 86.0716,347.4127 " fill="none" id="ContinuarRuta-to-HacerParada" style="stroke:#181818;stroke-width:1.0;"/><polygon fill="#181818" points="85.66,341.4269,82.2868,350.6801,86.003,346.4151,90.2679,350.1313,85.66,341.4269" style="stroke:#181818;stroke-width:1.0;"/></g><!--link ContinuarRuta to FinalizarRuta--><g id="link_ContinuarRuta_FinalizarRuta"><path d="M79.5,428.4269 C79.5,439.9169 79.5,447.6169 79.5,459.1069 " fill="none" id="ContinuarRuta-to-FinalizarRuta" style="stroke:#181818;stroke-width:1.0;"/><polygon fill="#181818" points="79.5,465.1069,83.5,456.1069,79.5,460.1069,75.5,456.1069,79.5,465.1069" style="stroke:#181818;stroke-width:1.0;"/></g><!--link FinalizarRuta to *end*Ruta--><g id="link_FinalizarRuta_*end*Ruta"><path d="M79.5,515.3369 C79.5,527.8869 79.5,536.5769 79.5,546.1469 " fill="none" id="FinalizarRuta-to-*end*Ruta" style="stroke:#181818;stroke-width:1.0;"/><polygon fill="#181818" points="79.5,552.1469,83.5,543.1469,79.5,547.1469,75.5,543.1469,79.5,552.1469" style="stroke:#181818;stroke-width:1.0;"/></g><!--SRC=[Aov9B4bLK0egBKbKKaWiLW0n5Agv580WMYjMGLVNJY4uCyyrjo2rAh48B8pWWcKzypAJCnEBmFgi59ISy_DIIfDByeiKCi4I2aKWay4QaLM2T7ea9gSM1IGM9QOaWkMH-61ve54bcNcb41rW5IWYMCt0LE6McPUOarc5P0gA25WDqATSjG00]--></g></svg>