<svg xmlns="http://www.w3.org/2000/svg" xmlns:xlink="http://www.w3.org/1999/xlink" contentStyleType="text/css" height="816px" preserveAspectRatio="none" style="width:516px;height:816px;background:#FFFFFF;" version="1.1" viewBox="0 0 516 816" width="516px" zoomAndPan="magnify"><defs/><g><!--class Ciudad--><g id="elem_Ciudad"><rect codeLine="1" fill="#F1F1F1" height="64.2969" id="Ciudad" rx="2.5" ry="2.5" style="stroke:#181818;stroke-width:0.5;" width="80.8906" x="138" y="7"/><ellipse cx="153" cy="23" fill="#ADD1B2" rx="11" ry="11" style="stroke:#181818;stroke-width:1.0;"/><path d="M155.9688,28.6406 Q155.3906,28.9375 154.75,29.0781 Q154.1094,29.2344 153.4063,29.2344 Q150.9063,29.2344 149.5781,27.5938 Q148.2656,25.9375 148.2656,22.8125 Q148.2656,19.6875 149.5781,18.0313 Q150.9063,16.375 153.4063,16.375 Q154.1094,16.375 154.75,16.5313 Q155.4063,16.6875 155.9688,16.9844 L155.9688,19.7031 Q155.3438,19.125 154.75,18.8594 Q154.1563,18.5781 153.5313,18.5781 Q152.1875,18.5781 151.5,19.6563 Q150.8125,20.7188 150.8125,22.8125 Q150.8125,24.9063 151.5,25.9844 Q152.1875,27.0469 153.5313,27.0469 Q154.1563,27.0469 154.75,26.7813 Q155.3438,26.5 155.9688,25.9219 L155.9688,28.6406 Z " fill="#000000"/><text fill="#000000" font-family="sans-serif" font-size="14" lengthAdjust="spacing" textLength="48.8906" x="167" y="27.8467">Ciudad</text><line style="stroke:#181818;stroke-width:0.5;" x1="139" x2="217.8906" y1="39" y2="39"/><ellipse cx="149" cy="52.6484" fill="none" rx="3" ry="3" style="stroke:#038048;stroke-width:1.0;"/><text fill="#000000" font-family="sans-serif" font-size="14" lengthAdjust="spacing" textLength="39.9629" x="158" y="55.9951">calles</text><line style="stroke:#181818;stroke-width:0.5;" x1="139" x2="217.8906" y1="63.2969" y2="63.2969"/></g><!--class Compa??a--><g id="elem_Compa&#241;&#237;a"><rect codeLine="5" fill="#F1F1F1" height="64.2969" id="Compa&#241;&#237;a" rx="2.5" ry="2.5" style="stroke:#181818;stroke-width:0.5;" width="120.6094" x="115" y="132"/><ellipse cx="138.0205" cy="148" fill="#ADD1B2" rx="11" ry="11" style="stroke:#181818;stroke-width:1.0;"/><path d="M140.9892,153.6406 Q140.4111,153.9375 139.7705,154.0781 Q139.1298,154.2344 138.4267,154.2344 Q135.9267,154.2344 134.5986,152.5938 Q133.2861,150.9375 133.2861,147.8125 Q133.2861,144.6875 134.5986,143.0313 Q135.9267,141.375 138.4267,141.375 Q139.1298,141.375 139.7705,141.5313 Q140.4267,141.6875 140.9892,141.9844 L140.9892,144.7031 Q140.3642,144.125 139.7705,143.8594 Q139.1767,143.5781 138.5517,143.5781 Q137.208,143.5781 136.5205,144.6563 Q135.833,145.7188 135.833,147.8125 Q135.833,149.9063 136.5205,150.9844 Q137.208,152.0469 138.5517,152.0469 Q139.1767,152.0469 139.7705,151.7813 Q140.3642,151.5 140.9892,150.9219 L140.9892,153.6406 Z " fill="#000000"/><text fill="#000000" font-family="sans-serif" font-size="14" lengthAdjust="spacing" textLength="70.7861" x="153.8028" y="152.8467">Compa&#241;&#237;a</text><line style="stroke:#181818;stroke-width:0.5;" x1="116" x2="234.6094" y1="164" y2="164"/><ellipse cx="126" cy="177.6484" fill="none" rx="3" ry="3" style="stroke:#038048;stroke-width:1.0;"/><text fill="#000000" font-family="sans-serif" font-size="14" lengthAdjust="spacing" textLength="94.6094" x="135" y="180.9951">TarifaRegular</text><line style="stroke:#181818;stroke-width:0.5;" x1="116" x2="234.6094" y1="188.2969" y2="188.2969"/></g><!--class Flota--><g id="elem_Flota"><rect codeLine="9" fill="#F1F1F1" height="64.2969" id="Flota" rx="2.5" ry="2.5" style="stroke:#181818;stroke-width:0.5;" width="66.5762" x="142" y="328.5"/><ellipse cx="157" cy="344.5" fill="#ADD1B2" rx="11" ry="11" style="stroke:#181818;stroke-width:1.0;"/><path d="M159.9688,350.1406 Q159.3906,350.4375 158.75,350.5781 Q158.1094,350.7344 157.4063,350.7344 Q154.9063,350.7344 153.5781,349.0938 Q152.2656,347.4375 152.2656,344.3125 Q152.2656,341.1875 153.5781,339.5313 Q154.9063,337.875 157.4063,337.875 Q158.1094,337.875 158.75,338.0313 Q159.4063,338.1875 159.9688,338.4844 L159.9688,341.2031 Q159.3438,340.625 158.75,340.3594 Q158.1563,340.0781 157.5313,340.0781 Q156.1875,340.0781 155.5,341.1563 Q154.8125,342.2188 154.8125,344.3125 Q154.8125,346.4063 155.5,347.4844 Q156.1875,348.5469 157.5313,348.5469 Q158.1563,348.5469 158.75,348.2813 Q159.3438,348 159.9688,347.4219 L159.9688,350.1406 Z " fill="#000000"/><text fill="#000000" font-family="sans-serif" font-size="14" lengthAdjust="spacing" textLength="34.5762" x="171" y="349.3467">Flota</text><line style="stroke:#181818;stroke-width:0.5;" x1="143" x2="207.5762" y1="360.5" y2="360.5"/><ellipse cx="153" cy="374.1484" fill="none" rx="3" ry="3" style="stroke:#038048;stroke-width:1.0;"/><text fill="#000000" font-family="sans-serif" font-size="14" lengthAdjust="spacing" textLength="26.8311" x="162" y="377.4951">tipo</text><line style="stroke:#181818;stroke-width:0.5;" x1="143" x2="207.5762" y1="384.7969" y2="384.7969"/></g><!--class Paradas--><g id="elem_Paradas"><rect codeLine="13" fill="#F1F1F1" height="64.2969" id="Paradas" rx="2.5" ry="2.5" style="stroke:#181818;stroke-width:0.5;" width="134.5615" x="375" y="636"/><ellipse cx="410.9004" cy="652" fill="#ADD1B2" rx="11" ry="11" style="stroke:#181818;stroke-width:1.0;"/><path d="M413.8691,657.6406 Q413.291,657.9375 412.6504,658.0781 Q412.0098,658.2344 411.3066,658.2344 Q408.8066,658.2344 407.4785,656.5938 Q406.166,654.9375 406.166,651.8125 Q406.166,648.6875 407.4785,647.0313 Q408.8066,645.375 411.3066,645.375 Q412.0098,645.375 412.6504,645.5313 Q413.3066,645.6875 413.8691,645.9844 L413.8691,648.7031 Q413.2441,648.125 412.6504,647.8594 Q412.0566,647.5781 411.4316,647.5781 Q410.0879,647.5781 409.4004,648.6563 Q408.7129,649.7188 408.7129,651.8125 Q408.7129,653.9063 409.4004,654.9844 Q410.0879,656.0469 411.4316,656.0469 Q412.0566,656.0469 412.6504,655.7813 Q413.2441,655.5 413.8691,654.9219 L413.8691,657.6406 Z " fill="#000000"/><text fill="#000000" font-family="sans-serif" font-size="14" lengthAdjust="spacing" textLength="56.1162" x="429.5449" y="656.8467">Paradas</text><line style="stroke:#181818;stroke-width:0.5;" x1="376" x2="508.5615" y1="668" y2="668"/><ellipse cx="386" cy="681.6484" fill="none" rx="3" ry="3" style="stroke:#038048;stroke-width:1.0;"/><text fill="#000000" font-family="sans-serif" font-size="14" lengthAdjust="spacing" textLength="108.5615" x="395" y="684.9951">ListaDeParadas</text><line style="stroke:#181818;stroke-width:0.5;" x1="376" x2="508.5615" y1="692.2969" y2="692.2969"/></g><!--class Ruta--><g id="elem_Ruta"><rect codeLine="17" fill="#F1F1F1" height="80.5938" id="Ruta" rx="2.5" ry="2.5" style="stroke:#181818;stroke-width:0.5;" width="95.2686" x="257" y="478"/><ellipse cx="285.7698" cy="494" fill="#ADD1B2" rx="11" ry="11" style="stroke:#181818;stroke-width:1.0;"/><path d="M288.7386,499.6406 Q288.1604,499.9375 287.5198,500.0781 Q286.8792,500.2344 286.1761,500.2344 Q283.6761,500.2344 282.3479,498.5938 Q281.0354,496.9375 281.0354,493.8125 Q281.0354,490.6875 282.3479,489.0313 Q283.6761,487.375 286.1761,487.375 Q286.8792,487.375 287.5198,487.5313 Q288.1761,487.6875 288.7386,487.9844 L288.7386,490.7031 Q288.1136,490.125 287.5198,489.8594 Q286.9261,489.5781 286.3011,489.5781 Q284.9573,489.5781 284.2698,490.6563 Q283.5823,491.7188 283.5823,493.8125 Q283.5823,495.9063 284.2698,496.9844 Q284.9573,498.0469 286.3011,498.0469 Q286.9261,498.0469 287.5198,497.7813 Q288.1136,497.5 288.7386,496.9219 L288.7386,499.6406 Z " fill="#000000"/><text fill="#000000" font-family="sans-serif" font-size="14" lengthAdjust="spacing" textLength="32.6689" x="302.8298" y="498.8467">Ruta</text><line style="stroke:#181818;stroke-width:0.5;" x1="258" x2="351.2686" y1="510" y2="510"/><ellipse cx="268" cy="523.6484" fill="none" rx="3" ry="3" style="stroke:#038048;stroke-width:1.0;"/><text fill="#000000" font-family="sans-serif" font-size="14" lengthAdjust="spacing" textLength="69.2686" x="277" y="526.9951">Comienzo</text><ellipse cx="268" cy="539.9453" fill="none" rx="3" ry="3" style="stroke:#038048;stroke-width:1.0;"/><text fill="#000000" font-family="sans-serif" font-size="14" lengthAdjust="spacing" textLength="20.8154" x="277" y="543.292">Fin</text><line style="stroke:#181818;stroke-width:0.5;" x1="258" x2="351.2686" y1="550.5938" y2="550.5938"/></g><!--class Viaje--><g id="elem_Viaje"><rect codeLine="22" fill="#F1F1F1" height="64.2969" id="Viaje" rx="2.5" ry="2.5" style="stroke:#181818;stroke-width:0.5;" width="89.0137" x="251" y="636"/><ellipse cx="276.1092" cy="652" fill="#ADD1B2" rx="11" ry="11" style="stroke:#181818;stroke-width:1.0;"/><path d="M279.0779,657.6406 Q278.4998,657.9375 277.8592,658.0781 Q277.2186,658.2344 276.5154,658.2344 Q274.0154,658.2344 272.6873,656.5938 Q271.3748,654.9375 271.3748,651.8125 Q271.3748,648.6875 272.6873,647.0313 Q274.0154,645.375 276.5154,645.375 Q277.2186,645.375 277.8592,645.5313 Q278.5154,645.6875 279.0779,645.9844 L279.0779,648.7031 Q278.4529,648.125 277.8592,647.8594 Q277.2654,647.5781 276.6404,647.5781 Q275.2967,647.5781 274.6092,648.6563 Q273.9217,649.7188 273.9217,651.8125 Q273.9217,653.9063 274.6092,654.9844 Q275.2967,656.0469 276.6404,656.0469 Q277.2654,656.0469 277.8592,655.7813 Q278.4529,655.5 279.0779,654.9219 L279.0779,657.6406 Z " fill="#000000"/><text fill="#000000" font-family="sans-serif" font-size="14" lengthAdjust="spacing" textLength="34.5488" x="292.3557" y="656.8467">Viaje</text><line style="stroke:#181818;stroke-width:0.5;" x1="252" x2="339.0137" y1="668" y2="668"/><ellipse cx="262" cy="681.6484" fill="none" rx="3" ry="3" style="stroke:#038048;stroke-width:1.0;"/><text fill="#000000" font-family="sans-serif" font-size="14" lengthAdjust="spacing" textLength="63.0137" x="271" y="684.9951">Duraci&#243;n</text><line style="stroke:#181818;stroke-width:0.5;" x1="252" x2="339.0137" y1="692.2969" y2="692.2969"/></g><!--class Horario--><g id="elem_Horario"><rect codeLine="26" fill="#F1F1F1" height="48" id="Horario" rx="2.5" ry="2.5" style="stroke:#181818;stroke-width:0.5;" width="83.6387" x="36.5" y="761"/><ellipse cx="51.5" cy="777" fill="#ADD1B2" rx="11" ry="11" style="stroke:#181818;stroke-width:1.0;"/><path d="M54.4688,782.6406 Q53.8906,782.9375 53.25,783.0781 Q52.6094,783.2344 51.9063,783.2344 Q49.4063,783.2344 48.0781,781.5938 Q46.7656,779.9375 46.7656,776.8125 Q46.7656,773.6875 48.0781,772.0313 Q49.4063,770.375 51.9063,770.375 Q52.6094,770.375 53.25,770.5313 Q53.9063,770.6875 54.4688,770.9844 L54.4688,773.7031 Q53.8438,773.125 53.25,772.8594 Q52.6563,772.5781 52.0313,772.5781 Q50.6875,772.5781 50,773.6563 Q49.3125,774.7188 49.3125,776.8125 Q49.3125,778.9063 50,779.9844 Q50.6875,781.0469 52.0313,781.0469 Q52.6563,781.0469 53.25,780.7813 Q53.8438,780.5 54.4688,779.9219 L54.4688,782.6406 Z " fill="#000000"/><text fill="#000000" font-family="sans-serif" font-size="14" lengthAdjust="spacing" textLength="51.6387" x="65.5" y="781.8467">Horario</text><line style="stroke:#181818;stroke-width:0.5;" x1="37.5" x2="119.1387" y1="793" y2="793"/><line style="stroke:#181818;stroke-width:0.5;" x1="37.5" x2="119.1387" y1="801" y2="801"/></g><!--class Cliente--><g id="elem_Cliente"><rect codeLine="28" fill="#F1F1F1" height="80.5938" id="Cliente" rx="2.5" ry="2.5" style="stroke:#181818;stroke-width:0.5;" width="100.3613" x="316.5" y="320"/><ellipse cx="340.148" cy="336" fill="#ADD1B2" rx="11" ry="11" style="stroke:#181818;stroke-width:1.0;"/><path d="M343.1167,341.6406 Q342.5386,341.9375 341.898,342.0781 Q341.2574,342.2344 340.5542,342.2344 Q338.0542,342.2344 336.7261,340.5938 Q335.4136,338.9375 335.4136,335.8125 Q335.4136,332.6875 336.7261,331.0313 Q338.0542,329.375 340.5542,329.375 Q341.2574,329.375 341.898,329.5313 Q342.5542,329.6875 343.1167,329.9844 L343.1167,332.7031 Q342.4917,332.125 341.898,331.8594 Q341.3042,331.5781 340.6792,331.5781 Q339.3355,331.5781 338.648,332.6563 Q337.9605,333.7188 337.9605,335.8125 Q337.9605,337.9063 338.648,338.9844 Q339.3355,340.0469 340.6792,340.0469 Q341.3042,340.0469 341.898,339.7813 Q342.4917,339.5 343.1167,338.9219 L343.1167,341.6406 Z " fill="#000000"/><text fill="#000000" font-family="sans-serif" font-size="14" lengthAdjust="spacing" textLength="49.1436" x="356.0698" y="340.8467">Cliente</text><line style="stroke:#181818;stroke-width:0.5;" x1="317.5" x2="415.8613" y1="352" y2="352"/><ellipse cx="327.5" cy="365.6484" fill="none" rx="3" ry="3" style="stroke:#038048;stroke-width:1.0;"/><text fill="#000000" font-family="sans-serif" font-size="14" lengthAdjust="spacing" textLength="55.9316" x="336.5" y="368.9951">Nombre</text><ellipse cx="327.5" cy="381.9453" fill="none" rx="3" ry="3" style="stroke:#038048;stroke-width:1.0;"/><text fill="#000000" font-family="sans-serif" font-size="14" lengthAdjust="spacing" textLength="74.3613" x="336.5" y="385.292">AbonoTipo</text><line style="stroke:#181818;stroke-width:0.5;" x1="317.5" x2="415.8613" y1="392.5938" y2="392.5938"/></g><!--class Abonos--><g id="elem_Abonos"><rect codeLine="33" fill="#F1F1F1" height="80.5938" id="Abonos" rx="2.5" ry="2.5" style="stroke:#181818;stroke-width:0.5;" width="89.0137" x="387" y="478"/><ellipse cx="404.3634" cy="494" fill="#ADD1B2" rx="11" ry="11" style="stroke:#181818;stroke-width:1.0;"/><path d="M407.3321,499.6406 Q406.754,499.9375 406.1134,500.0781 Q405.4728,500.2344 404.7696,500.2344 Q402.2696,500.2344 400.9415,498.5938 Q399.629,496.9375 399.629,493.8125 Q399.629,490.6875 400.9415,489.0313 Q402.2696,487.375 404.7696,487.375 Q405.4728,487.375 406.1134,487.5313 Q406.7696,487.6875 407.3321,487.9844 L407.3321,490.7031 Q406.7071,490.125 406.1134,489.8594 Q405.5196,489.5781 404.8946,489.5781 Q403.5509,489.5781 402.8634,490.6563 Q402.1759,491.7188 402.1759,493.8125 Q402.1759,495.9063 402.8634,496.9844 Q403.5509,498.0469 404.8946,498.0469 Q405.5196,498.0469 406.1134,497.7813 Q406.7071,497.5 407.3321,496.9219 L407.3321,499.6406 Z " fill="#000000"/><text fill="#000000" font-family="sans-serif" font-size="14" lengthAdjust="spacing" textLength="51.7617" x="418.8886" y="498.8467">Abonos</text><line style="stroke:#181818;stroke-width:0.5;" x1="388" x2="475.0137" y1="510" y2="510"/><ellipse cx="398" cy="523.6484" fill="none" rx="3" ry="3" style="stroke:#038048;stroke-width:1.0;"/><text fill="#000000" font-family="sans-serif" font-size="14" lengthAdjust="spacing" textLength="40.2842" x="407" y="526.9951">Tarifa</text><ellipse cx="398" cy="539.9453" fill="none" rx="3" ry="3" style="stroke:#038048;stroke-width:1.0;"/><text fill="#000000" font-family="sans-serif" font-size="14" lengthAdjust="spacing" textLength="63.0137" x="407" y="543.292">Duraci&#243;n</text><line style="stroke:#181818;stroke-width:0.5;" x1="388" x2="475.0137" y1="550.5938" y2="550.5938"/></g><!--class Veh?culo--><g id="elem_Veh&#237;culo"><rect codeLine="38" fill="#F1F1F1" height="64.2969" id="Veh&#237;culo" rx="2.5" ry="2.5" style="stroke:#181818;stroke-width:0.5;" width="91.9785" x="129.5" y="486.5"/><ellipse cx="144.5" cy="502.5" fill="#ADD1B2" rx="11" ry="11" style="stroke:#181818;stroke-width:1.0;"/><path d="M147.4688,508.1406 Q146.8906,508.4375 146.25,508.5781 Q145.6094,508.7344 144.9063,508.7344 Q142.4063,508.7344 141.0781,507.0938 Q139.7656,505.4375 139.7656,502.3125 Q139.7656,499.1875 141.0781,497.5313 Q142.4063,495.875 144.9063,495.875 Q145.6094,495.875 146.25,496.0313 Q146.9063,496.1875 147.4688,496.4844 L147.4688,499.2031 Q146.8438,498.625 146.25,498.3594 Q145.6563,498.0781 145.0313,498.0781 Q143.6875,498.0781 143,499.1563 Q142.3125,500.2188 142.3125,502.3125 Q142.3125,504.4063 143,505.4844 Q143.6875,506.5469 145.0313,506.5469 Q145.6563,506.5469 146.25,506.2813 Q146.8438,506 147.4688,505.4219 L147.4688,508.1406 Z " fill="#000000"/><text fill="#000000" font-family="sans-serif" font-size="14" lengthAdjust="spacing" textLength="59.9785" x="158.5" y="507.3467">Veh&#237;culo</text><line style="stroke:#181818;stroke-width:0.5;" x1="130.5" x2="220.4785" y1="518.5" y2="518.5"/><ellipse cx="140.5" cy="532.1484" fill="none" rx="3" ry="3" style="stroke:#038048;stroke-width:1.0;"/><text fill="#000000" font-family="sans-serif" font-size="14" lengthAdjust="spacing" textLength="29.8936" x="149.5" y="535.4951">Tipo</text><line style="stroke:#181818;stroke-width:0.5;" x1="130.5" x2="220.4785" y1="542.7969" y2="542.7969"/></g><!--class Conductor--><g id="elem_Conductor"><rect codeLine="42" fill="#F1F1F1" height="48" id="Conductor" rx="2.5" ry="2.5" style="stroke:#181818;stroke-width:0.5;" width="104.4814" x="111.5" y="644"/><ellipse cx="126.5" cy="660" fill="#ADD1B2" rx="11" ry="11" style="stroke:#181818;stroke-width:1.0;"/><path d="M129.4688,665.6406 Q128.8906,665.9375 128.25,666.0781 Q127.6094,666.2344 126.9063,666.2344 Q124.4063,666.2344 123.0781,664.5938 Q121.7656,662.9375 121.7656,659.8125 Q121.7656,656.6875 123.0781,655.0313 Q124.4063,653.375 126.9063,653.375 Q127.6094,653.375 128.25,653.5313 Q128.9063,653.6875 129.4688,653.9844 L129.4688,656.7031 Q128.8438,656.125 128.25,655.8594 Q127.6563,655.5781 127.0313,655.5781 Q125.6875,655.5781 125,656.6563 Q124.3125,657.7188 124.3125,659.8125 Q124.3125,661.9063 125,662.9844 Q125.6875,664.0469 127.0313,664.0469 Q127.6563,664.0469 128.25,663.7813 Q128.8438,663.5 129.4688,662.9219 L129.4688,665.6406 Z " fill="#000000"/><text fill="#000000" font-family="sans-serif" font-size="14" lengthAdjust="spacing" textLength="72.4814" x="140.5" y="664.8467">Conductor</text><line style="stroke:#181818;stroke-width:0.5;" x1="112.5" x2="214.9814" y1="676" y2="676"/><line style="stroke:#181818;stroke-width:0.5;" x1="112.5" x2="214.9814" y1="684" y2="684"/></g><!--class Servicio--><g id="elem_Servicio"><rect codeLine="44" fill="#F1F1F1" height="48" id="Servicio" rx="2.5" ry="2.5" style="stroke:#181818;stroke-width:0.5;" width="87.583" x="14.5" y="15"/><ellipse cx="29.5" cy="31" fill="#ADD1B2" rx="11" ry="11" style="stroke:#181818;stroke-width:1.0;"/><path d="M32.4688,36.6406 Q31.8906,36.9375 31.25,37.0781 Q30.6094,37.2344 29.9063,37.2344 Q27.4063,37.2344 26.0781,35.5938 Q24.7656,33.9375 24.7656,30.8125 Q24.7656,27.6875 26.0781,26.0313 Q27.4063,24.375 29.9063,24.375 Q30.6094,24.375 31.25,24.5313 Q31.9063,24.6875 32.4688,24.9844 L32.4688,27.7031 Q31.8438,27.125 31.25,26.8594 Q30.6563,26.5781 30.0313,26.5781 Q28.6875,26.5781 28,27.6563 Q27.3125,28.7188 27.3125,30.8125 Q27.3125,32.9063 28,33.9844 Q28.6875,35.0469 30.0313,35.0469 Q30.6563,35.0469 31.25,34.7813 Q31.8438,34.5 32.4688,33.9219 L32.4688,36.6406 Z " fill="#000000"/><text fill="#000000" font-family="sans-serif" font-size="14" lengthAdjust="spacing" textLength="55.583" x="43.5" y="35.8467">Servicio</text><line style="stroke:#181818;stroke-width:0.5;" x1="15.5" x2="101.083" y1="47" y2="47"/><line style="stroke:#181818;stroke-width:0.5;" x1="15.5" x2="101.083" y1="55" y2="55"/></g><!--class Incidencia--><g id="elem_Incidencia"><rect codeLine="46" fill="#F1F1F1" height="64.2969" id="Incidencia" rx="2.5" ry="2.5" style="stroke:#181818;stroke-width:0.5;" width="103.1279" x="7" y="226"/><ellipse cx="22" cy="242" fill="#ADD1B2" rx="11" ry="11" style="stroke:#181818;stroke-width:1.0;"/><path d="M24.9688,247.6406 Q24.3906,247.9375 23.75,248.0781 Q23.1094,248.2344 22.4063,248.2344 Q19.9063,248.2344 18.5781,246.5938 Q17.2656,244.9375 17.2656,241.8125 Q17.2656,238.6875 18.5781,237.0313 Q19.9063,235.375 22.4063,235.375 Q23.1094,235.375 23.75,235.5313 Q24.4063,235.6875 24.9688,235.9844 L24.9688,238.7031 Q24.3438,238.125 23.75,237.8594 Q23.1563,237.5781 22.5313,237.5781 Q21.1875,237.5781 20.5,238.6563 Q19.8125,239.7188 19.8125,241.8125 Q19.8125,243.9063 20.5,244.9844 Q21.1875,246.0469 22.5313,246.0469 Q23.1563,246.0469 23.75,245.7813 Q24.3438,245.5 24.9688,244.9219 L24.9688,247.6406 Z " fill="#000000"/><text fill="#000000" font-family="sans-serif" font-size="14" lengthAdjust="spacing" textLength="71.1279" x="36" y="246.8467">Incidencia</text><line style="stroke:#181818;stroke-width:0.5;" x1="8" x2="109.1279" y1="258" y2="258"/><ellipse cx="18" cy="271.6484" fill="none" rx="3" ry="3" style="stroke:#038048;stroke-width:1.0;"/><text fill="#000000" font-family="sans-serif" font-size="14" lengthAdjust="spacing" textLength="47.9609" x="27" y="274.9951">detalle</text><line style="stroke:#181818;stroke-width:0.5;" x1="8" x2="109.1279" y1="282.2969" y2="282.2969"/></g><!--link Ciudad to Compa??a--><g id="link_Ciudad_Compa&#241;&#237;a"><path codeLine="50" d="M177.74,71.04 C177.29,89.68 176.71,113.33 176.26,131.97 " fill="none" id="Ciudad-Compa&#241;&#237;a" style="stroke:#181818;stroke-width:1.0;"/></g><!--link Compa??a to Flota--><g id="link_Compa&#241;&#237;a_Flota"><path codeLine="51" d="M175.5,196.25 C175.5,232.55 175.5,292.07 175.5,328.33 " fill="none" id="Compa&#241;&#237;a-Flota" style="stroke:#181818;stroke-width:1.0;"/></g><!--link Flota to Veh?culo--><g id="link_Flota_Veh&#237;culo"><path codeLine="52" d="M175.5,392.69 C175.5,419.9 175.5,459.17 175.5,486.36 " fill="none" id="Flota-Veh&#237;culo" style="stroke:#181818;stroke-width:1.0;"/></g><!--link Veh?culo to Viaje--><g id="link_Veh&#237;culo_Viaje"><path codeLine="53" d="M200.95,550.78 C221.31,575.81 249.73,610.74 270.09,635.76 " fill="none" id="Veh&#237;culo-Viaje" style="stroke:#181818;stroke-width:1.0;"/></g><!--link Veh?culo to Conductor--><g id="link_Veh&#237;culo_Conductor"><path codeLine="54" d="M172.75,550.63 C171.71,562.62 170.52,576.45 169.5,589 C168,607.41 166.4,628.27 165.23,643.79 " fill="none" id="Veh&#237;culo-Conductor" style="stroke:#181818;stroke-width:1.0;"/><text fill="#000000" font-family="sans-serif" font-size="13" lengthAdjust="spacing" textLength="48.4453" x="170.5" y="602.0669">maneja</text></g><!--link Cliente to Abonos--><g id="link_Cliente_Abonos"><path codeLine="55" d="M383.07,401.27 C392.85,424.74 405.19,454.35 414.96,477.8 " fill="none" id="Cliente-Abonos" style="stroke:#181818;stroke-width:1.0;"/><text fill="#000000" font-family="sans-serif" font-size="13" lengthAdjust="spacing" textLength="32.4365" x="401.5" y="444.0669">paga</text></g><!--link Cliente to Veh?culo--><g id="link_Cliente_Veh&#237;culo"><path codeLine="56" d="M317.81,401.27 C285.42,427.72 243.5,461.96 213.56,486.41 " fill="none" id="Cliente-Veh&#237;culo" style="stroke:#181818;stroke-width:1.0;"/><text fill="#000000" font-family="sans-serif" font-size="13" lengthAdjust="spacing" textLength="22.9785" x="278.5" y="444.0669">usa</text></g><!--link Ruta to Paradas--><g id="link_Ruta_Paradas"><path codeLine="57" d="M341.48,559.03 C364,583.09 392.35,613.4 413.29,635.78 " fill="none" id="Ruta-Paradas" style="stroke:#181818;stroke-width:1.0;"/><text fill="#000000" font-family="sans-serif" font-size="13" lengthAdjust="spacing" textLength="32.9443" x="382.5" y="602.0669">tiene</text></g><!--link Ruta to Viaje--><g id="link_Ruta_Viaje"><path codeLine="58" d="M302.09,559.03 C300.62,583.09 298.77,613.4 297.41,635.78 " fill="none" id="Ruta-Viaje" style="stroke:#181818;stroke-width:1.0;"/></g><!--link Viaje to Horario--><g id="link_Viaje_Horario"><path codeLine="59" d="M250.8,692.69 C212.59,712.94 158,741.87 120.56,761.71 " fill="none" id="Viaje-Horario" style="stroke:#181818;stroke-width:1.0;"/></g><!--link Servicio to Incidencia--><g id="link_Servicio_Incidencia"><path codeLine="60" d="M58.5,63.22 C58.5,102.47 58.5,181.95 58.5,225.95 " fill="none" id="Servicio-Incidencia" style="stroke:#181818;stroke-width:1.0;"/></g><!--link Servicio to Compa??a--><g id="link_Servicio_Compa&#241;&#237;a"><path codeLine="61" d="M80.51,63.14 C98.91,82.48 125.33,110.26 145.64,131.61 " fill="none" id="Servicio-Compa&#241;&#237;a" style="stroke:#181818;stroke-width:1.0;"/></g><!--link Incidencia to Horario--><g id="link_Incidencia_Horario"><path codeLine="62" d="M58.5,290.13 C58.5,325.93 58.5,386.46 58.5,438.5 C58.5,438.5 58.5,438.5 58.5,669 C58.5,701.22 66.22,737.78 72.06,760.86 " fill="none" id="Incidencia-Horario" style="stroke:#181818;stroke-width:1.0;stroke-dasharray:7.0,7.0;"/></g><!--SRC=[TL5BJiCm5Dpx55Qtg3q0EzIg0WaXLAhkNsrJN3bsv0yB44Vg0d64N8oNrFPpaCWYacV6p_DcX84G-5ed2P9_CexV3HTWZ0hiYp5nfLtNm_0zNA1Azk3rA-pKAHdmfDmQ5qaKTU-8UmOF4a9b7tM8i54P9jqkDIFmQQtiXyl7hROaF6WugwhS90z23p-DuDvvjEdg6WP7HRhnvBgZL_bmTtJMxMU69oZyMVd_rmxgRRY8P1pTc8rREokJYCuNu4NvTot8tuCLMYhyqVfInR6BSKZkQBbiwc1DCqXCwRDh1tYiXXXP6-4njZbKhV5RlkZ0gZCiM8aB-Pm4aZsSvXJDGJO59AV-a2bz8nvHheZ93gRwy5XgAdcC66KnWvlLcxHMgpBZ5m00]--></g></svg>